<svg xmlns="http://www.w3.org/2000/svg" viewBox="0 0 256 256" role="img" aria-label="slime stressed breath-a"><style>.body-fill{fill:var(--color-species-slime-body,#a7eab2);opacity:1;}.accent-fill{fill:var(--color-species-slime-accent,#39b85f);opacity:1;}.belly-fill{fill:var(--color-species-slime-belly,#d6fadb);opacity:1;}.blush-fill{fill:var(--color-species-slime-blush,#2f8c49);}.glow-fill{fill:var(--color-species-slime-glow,#ecffef);}.outline-stroke{stroke:var(--color-species-slime-outline,#1e4028);stroke-width:6;stroke-linecap:round;stroke-linejoin:round;}.fine-stroke{stroke:var(--color-species-slime-outline,#1e4028);stroke-width:4;stroke-linecap:round;stroke-linejoin:round;}.mood-accent-fill{fill:var(--color-state-stressed-accent,#89a4d5);}.mood-accent-stroke{stroke:var(--color-state-stressed-accent,#89a4d5);stroke-width:5;stroke-linecap:round;stroke-linejoin:round;}.mood-bg-fill{fill:var(--color-state-stressed-bg,#ffe1d4);}.mood-fg-fill{fill:var(--color-state-stressed-fg,#a34a1f);}.shadow-fill{fill:#5d8f6d;opacity:0.22;}</style><ellipse class="shadow-fill" cx="128" cy="222" rx="58" ry="16" /><path class="mood-accent-stroke" d="M 193 66 Q 204 47 218 66" /><path class="mood-accent-stroke" d="M 196 73 L 192 88" /><path class="mood-accent-stroke" d="M 208 74 L 204 90" /><path class="mood-accent-stroke" d="M 61 88 Q 64 66 78 74" opacity="0.65" /><g transform="translate(-1.4 0)"><g transform="translate(0 -3)"><path class="body-fill outline-stroke" d="M 76 188 Q 68 125 90 89 Q 110 53 128 51 Q 149 53 168 89 Q 190 123 180 188 Q 170 202 150 196 Q 136 208 128 202 Q 117 212 102 196 Q 84 202 76 188 Z" /><path class="glow-fill" d="M 106 75 Q 128 59 150 75 Q 142 95 128 93 Q 112 95 106 75 Z" opacity="0.85" /><path class="accent-fill outline-stroke" d="M 112 99 Q 128 87 144 99" fill="none" /><path class="accent-fill outline-stroke" d="M 86 190 Q 104 216 118 196" fill="none" opacity="0.82" /><path class="accent-fill outline-stroke" d="M 170 194 Q 156 210 142 198" fill="none" opacity="0.82" /><path class="fine-stroke" d="M 98 107 L 116 123" /><path class="fine-stroke" d="M 98 123 L 116 107" /><path class="fine-stroke" d="M 140 107 L 158 123" /><path class="fine-stroke" d="M 140 123 L 158 107" /><path class="fine-stroke" d="M 113 147 Q 121 140 128 147 Q 135 154 143 147" /><circle class="blush-fill" cx="94" cy="141" r="8" opacity="0.22" /><circle class="blush-fill" cx="162" cy="141" r="8" opacity="0.22" /></g></g></svg>
