<svg xmlns="http://www.w3.org/2000/svg" viewBox="0 0 256 256" role="img" aria-label="slime stressed breath-b"><style>.body-fill{fill:var(--color-species-slime-body,#c4f2cb);opacity:1;}.accent-fill{fill:var(--color-species-slime-accent,#58cc7c);opacity:1;}.blush-fill{fill:var(--color-species-slime-blush,#3fa862);}.glow-fill{fill:var(--color-species-slime-glow,#e7ffe8);}.outline-stroke{stroke:var(--color-species-slime-outline,#30543d);stroke-width:6;stroke-linecap:round;stroke-linejoin:round;}.fine-stroke{stroke:var(--color-species-slime-outline,#30543d);stroke-width:4;stroke-linecap:round;stroke-linejoin:round;}.mood-accent-fill{fill:var(--color-state-stressed-accent,#89a4d5);}.mood-accent-stroke{stroke:var(--color-state-stressed-accent,#89a4d5);stroke-width:5;stroke-linecap:round;stroke-linejoin:round;}.mood-bg-fill{fill:var(--color-state-stressed-bg,#ffe1d4);}.mood-fg-fill{fill:var(--color-state-stressed-fg,#a34a1f);}.shadow-fill{fill:#5d8f6d;opacity:0.22;}</style><ellipse class="shadow-fill" cx="128" cy="222" rx="58" ry="16" /><path class="mood-accent-stroke" d="M 193 66 Q 204 47 218 66" /><path class="mood-accent-stroke" d="M 196 73 L 192 88" /><path class="mood-accent-stroke" d="M 208 74 L 204 90" /><path class="mood-accent-stroke" d="M 61 88 Q 64 66 78 74" opacity="0.65" /><g transform="translate(0 0)"><g id="pet-slime" transform="translate(0 2)"><path class="glow-fill outline-stroke" d="M 76 188 Q 68 130 90 94 Q 110 58 128 56 Q 149 58 168 94 Q 190 128 180 188 Q 170 202 150 196 Q 136 208 128 202 Q 117 212 102 196 Q 84 202 76 188 Z" /><path class="accent-fill outline-stroke" d="M 112 104 Q 128 92 144 104" fill="none" /><path class="accent-fill outline-stroke" d="M 86 190 Q 104 216 118 196" fill="none" opacity="0.82" /><path class="accent-fill outline-stroke" d="M 170 194 Q 156 210 142 198" fill="none" opacity="0.82" /><path class="fine-stroke" d="M 98 112 L 116 128" /><path class="fine-stroke" d="M 98 128 L 116 112" /><path class="fine-stroke" d="M 140 112 L 158 128" /><path class="fine-stroke" d="M 140 128 L 158 112" /><path class="fine-stroke" d="M 113 152 Q 121 145 128 152 Q 135 159 143 152" /><circle class="blush-fill" cx="94" cy="146" r="8" opacity="0.2" /><circle class="blush-fill" cx="162" cy="146" r="8" opacity="0.2" /></g></g></svg>
