<svg xmlns="http://www.w3.org/2000/svg" viewBox="0 0 256 256" role="img" aria-label="axolotl sleep_deprived breath-b"><style>.body-fill{fill:var(--color-species-axolotl-body,#ffd6e5);opacity:1;}.accent-fill{fill:var(--color-species-axolotl-accent,#ff92b2);opacity:1;}.blush-fill{fill:var(--color-species-axolotl-blush,#ff6f91);}.glow-fill{fill:var(--color-species-axolotl-glow,#ffe8f0);}.outline-stroke{stroke:var(--color-species-axolotl-outline,#473643);stroke-width:6;stroke-linecap:round;stroke-linejoin:round;}.fine-stroke{stroke:var(--color-species-axolotl-outline,#473643);stroke-width:4;stroke-linecap:round;stroke-linejoin:round;}.mood-accent-fill{fill:var(--color-state-sleep_deprived-accent,#b9c1ff);}.mood-accent-stroke{stroke:var(--color-state-sleep_deprived-accent,#b9c1ff);stroke-width:5;stroke-linecap:round;stroke-linejoin:round;}.mood-bg-fill{fill:var(--color-state-sleep_deprived-bg,#d5d8ff);}.mood-fg-fill{fill:var(--color-state-sleep_deprived-fg,#3a3a66);}.shadow-fill{fill:#c78ba0;opacity:0.22;}</style><ellipse class="shadow-fill" cx="128" cy="222" rx="54" ry="16" /><path class="mood-bg-fill" d="M 188 58 Q 202 42 214 58 Q 205 60 201 73 Q 197 61 188 58 Z" opacity="0.7" /><circle class="mood-bg-fill" cx="56" cy="76" r="5" opacity="0.9" /><circle class="mood-bg-fill" cx="78" cy="56" r="4" opacity="0.82" /><g transform="translate(2 0)"><g id="pet-axolotl" transform="translate(0 2)"><path class="accent-fill outline-stroke" d="M 81 97 C 56 73 35 97 62 119 C 66 113 73 105 81 97 Z" /><path class="accent-fill outline-stroke" d="M 72 116 C 45 114 35 134 62 144 C 65 135 68 126 72 116 Z" /><path class="accent-fill outline-stroke" d="M 173 97 C 198 73 221 97 194 119 C 190 113 182 105 173 97 Z" /><path class="accent-fill outline-stroke" d="M 184 116 C 211 114 221 134 194 144 C 191 135 188 126 184 116 Z" /><ellipse class="glow-fill outline-stroke" cx="128" cy="96" rx="54" ry="44" /><ellipse class="body-fill outline-stroke" cx="128" cy="165" rx="48" ry="37" /><path class="body-fill outline-stroke" d="M 104 177 Q 86 211 96 233 Q 114 217 124 189" /><path class="body-fill outline-stroke" d="M 152 177 Q 170 211 160 233 Q 142 217 132 189" /><path class="accent-fill outline-stroke" d="M 116 213 Q 120 235 114 249" /><path class="accent-fill outline-stroke" d="M 140 213 Q 136 235 142 249" /><path class="fine-stroke" d="M 97 99 H 117" /><path class="fine-stroke" d="M 139 99 H 159" /><path class="fine-stroke" d="M 98 92 Q 108 88 118 92" opacity="0.45" /><path class="fine-stroke" d="M 138 92 Q 148 88 158 92" opacity="0.45" /><path class="fine-stroke" d="M 116 124 Q 128 130 140 124" /><circle class="blush-fill" cx="88" cy="120" r="9" opacity="0.34" /><circle class="blush-fill" cx="168" cy="120" r="9" opacity="0.34" /></g></g></svg>
