<svg xmlns="http://www.w3.org/2000/svg" viewBox="0 0 256 256" role="img" aria-label="axolotl sleep_deprived breath-a"><style>.body-fill{fill:var(--color-species-axolotl-body,#ffd6e5);opacity:1;}.accent-fill{fill:var(--color-species-axolotl-accent,#ff92b2);opacity:1;}.blush-fill{fill:var(--color-species-axolotl-blush,#ff6f91);}.glow-fill{fill:var(--color-species-axolotl-glow,#ffe8f0);}.outline-stroke{stroke:var(--color-species-axolotl-outline,#473643);stroke-width:6;stroke-linecap:round;stroke-linejoin:round;}.fine-stroke{stroke:var(--color-species-axolotl-outline,#473643);stroke-width:4;stroke-linecap:round;stroke-linejoin:round;}.mood-accent-fill{fill:var(--color-state-sleep_deprived-accent,#b9c1ff);}.mood-accent-stroke{stroke:var(--color-state-sleep_deprived-accent,#b9c1ff);stroke-width:5;stroke-linecap:round;stroke-linejoin:round;}.mood-bg-fill{fill:var(--color-state-sleep_deprived-bg,#d5d8ff);}.mood-fg-fill{fill:var(--color-state-sleep_deprived-fg,#3a3a66);}.shadow-fill{fill:#c78ba0;opacity:0.22;}</style><ellipse class="shadow-fill" cx="128" cy="222" rx="54" ry="16" /><path class="mood-bg-fill" d="M 188 58 Q 202 42 214 58 Q 205 60 201 73 Q 197 61 188 58 Z" opacity="0.7" /><circle class="mood-bg-fill" cx="56" cy="76" r="5" opacity="0.9" /><circle class="mood-bg-fill" cx="78" cy="56" r="4" opacity="0.82" /><g transform="translate(-2 0)"><g id="pet-axolotl" transform="translate(0 -3)"><path class="accent-fill outline-stroke" d="M 81 92 C 56 68 35 92 62 114 C 66 108 73 100 81 92 Z" /><path class="accent-fill outline-stroke" d="M 72 111 C 45 109 35 129 62 139 C 65 130 68 121 72 111 Z" /><path class="accent-fill outline-stroke" d="M 173 92 C 198 68 221 92 194 114 C 190 108 182 100 173 92 Z" /><path class="accent-fill outline-stroke" d="M 184 111 C 211 109 221 129 194 139 C 191 130 188 121 184 111 Z" /><ellipse class="glow-fill outline-stroke" cx="128" cy="91" rx="54" ry="44" /><ellipse class="body-fill outline-stroke" cx="128" cy="160" rx="48" ry="39" /><path class="body-fill outline-stroke" d="M 104 172 Q 86 206 96 228 Q 114 212 124 184" /><path class="body-fill outline-stroke" d="M 152 172 Q 170 206 160 228 Q 142 212 132 184" /><path class="accent-fill outline-stroke" d="M 116 208 Q 120 230 114 244" /><path class="accent-fill outline-stroke" d="M 140 208 Q 136 230 142 244" /><path class="fine-stroke" d="M 97 94 H 117" /><path class="fine-stroke" d="M 139 94 H 159" /><path class="fine-stroke" d="M 98 87 Q 108 83 118 87" opacity="0.45" /><path class="fine-stroke" d="M 138 87 Q 148 83 158 87" opacity="0.45" /><path class="fine-stroke" d="M 116 119 Q 128 125 140 119" /><circle class="blush-fill" cx="88" cy="115" r="9" opacity="0.34" /><circle class="blush-fill" cx="168" cy="115" r="9" opacity="0.34" /></g></g></svg>
