<svg xmlns="http://www.w3.org/2000/svg" viewBox="0 0 256 256" role="img" aria-label="axolotl healthy breath-b"><style>.body-fill{fill:var(--color-species-axolotl-body,#ffd6e5);opacity:1;}.accent-fill{fill:var(--color-species-axolotl-accent,#ff92b2);opacity:1;}.blush-fill{fill:var(--color-species-axolotl-blush,#ff6f91);}.glow-fill{fill:var(--color-species-axolotl-glow,#ffe8f0);}.outline-stroke{stroke:var(--color-species-axolotl-outline,#473643);stroke-width:6;stroke-linecap:round;stroke-linejoin:round;}.fine-stroke{stroke:var(--color-species-axolotl-outline,#473643);stroke-width:4;stroke-linecap:round;stroke-linejoin:round;}.mood-accent-fill{fill:var(--color-state-healthy-accent,#f3c95c);}.mood-accent-stroke{stroke:var(--color-state-healthy-accent,#f3c95c);stroke-width:5;stroke-linecap:round;stroke-linejoin:round;}.mood-bg-fill{fill:var(--color-state-healthy-bg,#fff8d2);}.mood-fg-fill{fill:var(--color-state-healthy-fg,#4b3a2a);}.shadow-fill{fill:#c78ba0;opacity:0.22;}</style><ellipse class="shadow-fill" cx="128" cy="222" rx="54" ry="16" /><path class="mood-accent-stroke" d="M 70 60 L 70 44" opacity="0.88" /><path class="mood-accent-stroke" d="M 63 52 L 77 52" opacity="0.88" /><path class="mood-accent-stroke" d="M 185 54 L 193 40" opacity="0.88" /><path class="mood-accent-stroke" d="M 178 44 L 200 50" opacity="0.88" /><circle class="mood-accent-fill" cx="204" cy="84" r="5" opacity="0.75" /><g transform="translate(2 0)"><g id="pet-axolotl" transform="translate(0 2)"><path class="accent-fill outline-stroke" d="M 81 97 C 56 73 35 97 62 119 C 66 113 73 105 81 97 Z" /><path class="accent-fill outline-stroke" d="M 72 116 C 45 114 35 134 62 144 C 65 135 68 126 72 116 Z" /><path class="accent-fill outline-stroke" d="M 173 97 C 198 73 221 97 194 119 C 190 113 182 105 173 97 Z" /><path class="accent-fill outline-stroke" d="M 184 116 C 211 114 221 134 194 144 C 191 135 188 126 184 116 Z" /><ellipse class="glow-fill outline-stroke" cx="128" cy="96" rx="54" ry="44" /><ellipse class="body-fill outline-stroke" cx="128" cy="165" rx="48" ry="37" /><path class="body-fill outline-stroke" d="M 104 177 Q 86 211 96 233 Q 114 217 124 189" /><path class="body-fill outline-stroke" d="M 152 177 Q 170 211 160 233 Q 142 217 132 189" /><path class="accent-fill outline-stroke" d="M 116 213 Q 120 235 114 249" /><path class="accent-fill outline-stroke" d="M 140 213 Q 136 235 142 249" /><ellipse class="mood-fg-fill" cx="108" cy="98" rx="6" ry="8" /><ellipse class="mood-fg-fill" cx="148" cy="98" rx="6" ry="8" /><path class="fine-stroke" d="M 118 122 L 128 132 L 138 122" /><circle class="blush-fill" cx="88" cy="120" r="9" opacity="0.34" /><circle class="blush-fill" cx="168" cy="120" r="9" opacity="0.34" /></g></g></svg>
