<svg xmlns="http://www.w3.org/2000/svg" viewBox="0 0 256 256" role="img" aria-label="axolotl healthy breath-a"><style>.body-fill{fill:var(--color-species-axolotl-body,#ffc9dd);opacity:1;}.accent-fill{fill:var(--color-species-axolotl-accent,#ff8fb1);opacity:1;}.belly-fill{fill:var(--color-species-axolotl-belly,#fff3f7);opacity:1;}.blush-fill{fill:var(--color-species-axolotl-blush,#ff5e85);}.glow-fill{fill:var(--color-species-axolotl-glow,#ffeaf2);}.outline-stroke{stroke:var(--color-species-axolotl-outline,#3a2933);stroke-width:6;stroke-linecap:round;stroke-linejoin:round;}.fine-stroke{stroke:var(--color-species-axolotl-outline,#3a2933);stroke-width:4;stroke-linecap:round;stroke-linejoin:round;}.mood-accent-fill{fill:var(--color-state-healthy-accent,#f3c95c);}.mood-accent-stroke{stroke:var(--color-state-healthy-accent,#f3c95c);stroke-width:5;stroke-linecap:round;stroke-linejoin:round;}.mood-bg-fill{fill:var(--color-state-healthy-bg,#fff8d2);}.mood-fg-fill{fill:var(--color-state-healthy-fg,#4b3a2a);}.shadow-fill{fill:#c78ba0;opacity:0.22;}</style><ellipse class="shadow-fill" cx="128" cy="222" rx="54" ry="16" /><path class="mood-accent-stroke" d="M 70 60 L 70 44" opacity="0.88" /><path class="mood-accent-stroke" d="M 63 52 L 77 52" opacity="0.88" /><path class="mood-accent-stroke" d="M 185 54 L 193 40" opacity="0.88" /><path class="mood-accent-stroke" d="M 178 44 L 200 50" opacity="0.88" /><circle class="mood-accent-fill" cx="204" cy="84" r="5" opacity="0.75" /><g transform="translate(-2 0)"><g transform="translate(0 -3)"><path class="accent-fill outline-stroke" d="M 81 92 C 56 68 35 92 62 114 C 66 108 73 100 81 92 Z" /><path class="accent-fill outline-stroke" d="M 72 111 C 45 109 35 129 62 139 C 65 130 68 121 72 111 Z" /><path class="accent-fill outline-stroke" d="M 173 92 C 198 68 221 92 194 114 C 190 108 182 100 173 92 Z" /><path class="accent-fill outline-stroke" d="M 184 111 C 211 109 221 129 194 139 C 191 130 188 121 184 111 Z" /><ellipse class="body-fill outline-stroke" cx="128" cy="91" rx="54" ry="44" /><ellipse class="belly-fill" cx="128" cy="107" rx="40" ry="24" opacity="0.78" /><ellipse class="body-fill outline-stroke" cx="128" cy="160" rx="48" ry="39" /><ellipse class="belly-fill" cx="128" cy="166" rx="30" ry="22" opacity="0.7" /><path class="body-fill outline-stroke" d="M 104 172 Q 86 206 96 228 Q 114 212 124 184" /><path class="body-fill outline-stroke" d="M 152 172 Q 170 206 160 228 Q 142 212 132 184" /><path class="accent-fill outline-stroke" d="M 116 208 Q 120 230 114 244" /><path class="accent-fill outline-stroke" d="M 140 208 Q 136 230 142 244" /><ellipse class="mood-fg-fill" cx="108" cy="93" rx="6" ry="8" /><ellipse class="mood-fg-fill" cx="148" cy="93" rx="6" ry="8" /><ellipse fill="#ffffff" cx="110" cy="90" rx="1.6" ry="2" opacity="0.9" /><ellipse fill="#ffffff" cx="150" cy="90" rx="1.6" ry="2" opacity="0.9" /><path class="fine-stroke" d="M 118 117 L 128 127 L 138 117" /><circle class="blush-fill" cx="88" cy="115" r="9" opacity="0.36" /><circle class="blush-fill" cx="168" cy="115" r="9" opacity="0.36" /></g></g></svg>
