<svg xmlns="http://www.w3.org/2000/svg" viewBox="0 0 256 256" role="img" aria-label="axolotl healthy reaction-happy"><style>.body-fill{fill:var(--color-species-axolotl-body,#ffd6e5);opacity:1;}.accent-fill{fill:var(--color-species-axolotl-accent,#ff92b2);opacity:1;}.blush-fill{fill:var(--color-species-axolotl-blush,#ff6f91);}.glow-fill{fill:var(--color-species-axolotl-glow,#ffe8f0);}.outline-stroke{stroke:var(--color-species-axolotl-outline,#473643);stroke-width:6;stroke-linecap:round;stroke-linejoin:round;}.fine-stroke{stroke:var(--color-species-axolotl-outline,#473643);stroke-width:4;stroke-linecap:round;stroke-linejoin:round;}.mood-accent-fill{fill:var(--color-state-healthy-accent,#f3c95c);}.mood-accent-stroke{stroke:var(--color-state-healthy-accent,#f3c95c);stroke-width:5;stroke-linecap:round;stroke-linejoin:round;}.mood-bg-fill{fill:var(--color-state-healthy-bg,#fff8d2);}.mood-fg-fill{fill:var(--color-state-healthy-fg,#4b3a2a);}.shadow-fill{fill:#c78ba0;opacity:0.22;}</style><ellipse class="shadow-fill" cx="128" cy="222" rx="54" ry="16" /><path class="mood-accent-stroke" d="M 70 60 L 70 44" opacity="1" /><path class="mood-accent-stroke" d="M 63 52 L 77 52" opacity="1" /><path class="mood-accent-stroke" d="M 185 54 L 193 40" opacity="1" /><path class="mood-accent-stroke" d="M 178 44 L 200 50" opacity="1" /><circle class="mood-accent-fill" cx="204" cy="84" r="7" opacity="0.75" /><g transform="translate(-9 0)"><g id="pet-axolotl" transform="translate(0 -18)"><path class="accent-fill outline-stroke" d="M 81 77 C 56 46 35 77 62 99 C 66 93 73 85 81 77 Z" /><path class="accent-fill outline-stroke" d="M 72 96 C 45 90.5 35 114 62 124 C 65 115 68 106 72 96 Z" /><path class="accent-fill outline-stroke" d="M 173 77 C 198 46 221 77 194 99 C 190 93 182 85 173 77 Z" /><path class="accent-fill outline-stroke" d="M 184 96 C 211 90.5 221 114 194 124 C 191 115 188 106 184 96 Z" /><ellipse class="glow-fill outline-stroke" cx="128" cy="76" rx="54" ry="44" /><ellipse class="body-fill outline-stroke" cx="128" cy="145" rx="48" ry="41" /><path class="body-fill outline-stroke" d="M 104 157 Q 86 191 96 213 Q 114 197 124 169" /><path class="body-fill outline-stroke" d="M 152 157 Q 170 191 160 213 Q 142 197 132 169" /><path class="accent-fill outline-stroke" d="M 116 193 Q 120 215 114 229" /><path class="accent-fill outline-stroke" d="M 140 193 Q 136 215 142 229" /><ellipse class="mood-fg-fill" cx="108" cy="78" rx="6" ry="8" /><ellipse class="mood-fg-fill" cx="148" cy="78" rx="6" ry="8" /><path class="outline-stroke" d="M 116 102 Q 128 120 140 102" fill="var(--color-state-healthy-fg,#4b3a2a)" /><circle class="blush-fill" cx="88" cy="100" r="9" opacity="0.34" /><circle class="blush-fill" cx="168" cy="100" r="9" opacity="0.34" /><path class="mood-accent-stroke" d="M 128 34 L 128 18" /><path class="mood-accent-stroke" d="M 118 24 L 138 24" /></g></g></svg>
