<svg xmlns="http://www.w3.org/2000/svg" viewBox="0 0 256 256" role="img" aria-label="axolotl healthy turn-3q"><style>.body-fill{fill:var(--color-species-axolotl-body,#ffc9dd);opacity:1;}.accent-fill{fill:var(--color-species-axolotl-accent,#ff8fb1);opacity:1;}.belly-fill{fill:var(--color-species-axolotl-belly,#fff3f7);opacity:1;}.blush-fill{fill:var(--color-species-axolotl-blush,#ff5e85);}.glow-fill{fill:var(--color-species-axolotl-glow,#ffeaf2);}.outline-stroke{stroke:var(--color-species-axolotl-outline,#3a2933);stroke-width:6;stroke-linecap:round;stroke-linejoin:round;}.fine-stroke{stroke:var(--color-species-axolotl-outline,#3a2933);stroke-width:4;stroke-linecap:round;stroke-linejoin:round;}.mood-accent-fill{fill:var(--color-state-healthy-accent,#f3c95c);}.mood-accent-stroke{stroke:var(--color-state-healthy-accent,#f3c95c);stroke-width:5;stroke-linecap:round;stroke-linejoin:round;}.mood-bg-fill{fill:var(--color-state-healthy-bg,#fff8d2);}.mood-fg-fill{fill:var(--color-state-healthy-fg,#4b3a2a);}.shadow-fill{fill:#c78ba0;opacity:0.22;}</style><ellipse class="shadow-fill" cx="128" cy="222" rx="54" ry="16" /><path class="mood-accent-stroke" d="M 70 60 L 70 44" opacity="0.88" /><path class="mood-accent-stroke" d="M 63 52 L 77 52" opacity="0.88" /><path class="mood-accent-stroke" d="M 185 54 L 193 40" opacity="0.88" /><path class="mood-accent-stroke" d="M 178 44 L 200 50" opacity="0.88" /><circle class="mood-accent-fill" cx="204" cy="84" r="5" opacity="0.75" /><g transform="translate(6 0)"><g transform="translate(0 0)"><path class="accent-fill outline-stroke" d="M 81 95 C 56 71 35 95 62 117 C 66 111 73 103 81 95 Z" /><path class="accent-fill outline-stroke" d="M 72 114 C 45 112 35 132 62 142 C 65 133 68 124 72 114 Z" /><path class="accent-fill outline-stroke" d="M 173 95 C 198 71 221 95 194 117 C 190 111 182 103 173 95 Z" /><path class="accent-fill outline-stroke" d="M 184 114 C 211 112 221 132 194 142 C 191 133 188 124 184 114 Z" /><ellipse class="body-fill outline-stroke" cx="128" cy="94" rx="54" ry="44" /><ellipse class="belly-fill" cx="128" cy="110" rx="40" ry="24" opacity="0.78" /><ellipse class="body-fill outline-stroke" cx="128" cy="163" rx="48" ry="38" /><ellipse class="belly-fill" cx="128" cy="169" rx="30" ry="22" opacity="0.7" /><path class="body-fill outline-stroke" d="M 104 175 Q 86 209 96 231 Q 114 215 124 187" /><path class="body-fill outline-stroke" d="M 152 175 Q 170 209 160 231 Q 142 215 132 187" /><path class="accent-fill outline-stroke" d="M 116 211 Q 120 233 114 247" /><path class="accent-fill outline-stroke" d="M 140 211 Q 136 233 142 247" /><ellipse class="mood-fg-fill" cx="108" cy="96" rx="6" ry="8" /><ellipse class="mood-fg-fill" cx="148" cy="96" rx="6" ry="8" /><ellipse fill="#ffffff" cx="110" cy="93" rx="1.6" ry="2" opacity="0.9" /><ellipse fill="#ffffff" cx="150" cy="93" rx="1.6" ry="2" opacity="0.9" /><path class="fine-stroke" d="M 118 120 L 128 130 L 138 120" /><circle class="blush-fill" cx="88" cy="118" r="9" opacity="0.36" /><circle class="blush-fill" cx="168" cy="118" r="9" opacity="0.36" /></g></g></svg>
