<svg xmlns="http://www.w3.org/2000/svg" viewBox="0 0 256 256" role="img" aria-label="cat sleep_deprived blink"><style>.body-fill{fill:var(--color-species-cat-body,#ffe4b8);opacity:1;}.accent-fill{fill:var(--color-species-cat-accent,#f6b15d);opacity:1;}.blush-fill{fill:var(--color-species-cat-blush,#ff926b);}.glow-fill{fill:var(--color-species-cat-glow,#fff0d8);}.outline-stroke{stroke:var(--color-species-cat-outline,#4b3a2a);stroke-width:6;stroke-linecap:round;stroke-linejoin:round;}.fine-stroke{stroke:var(--color-species-cat-outline,#4b3a2a);stroke-width:4;stroke-linecap:round;stroke-linejoin:round;}.mood-accent-fill{fill:var(--color-state-sleep_deprived-accent,#b9c1ff);}.mood-accent-stroke{stroke:var(--color-state-sleep_deprived-accent,#b9c1ff);stroke-width:5;stroke-linecap:round;stroke-linejoin:round;}.mood-bg-fill{fill:var(--color-state-sleep_deprived-bg,#d5d8ff);}.mood-fg-fill{fill:var(--color-state-sleep_deprived-fg,#3a3a66);}.shadow-fill{fill:#c79a5e;opacity:0.22;}</style><ellipse class="shadow-fill" cx="128" cy="222" rx="56" ry="16" /><path class="mood-bg-fill" d="M 188 58 Q 202 42 214 58 Q 205 60 201 73 Q 197 61 188 58 Z" opacity="0.7" /><circle class="mood-bg-fill" cx="56" cy="76" r="5" opacity="0.9" /><circle class="mood-bg-fill" cx="78" cy="56" r="4" opacity="0.82" /><g transform="translate(0 0)"><g id="pet-cat" transform="translate(0 0)"><path class="accent-fill outline-stroke" d="M 92 78 L 76 42 L 106 62 Z" /><path class="accent-fill outline-stroke" d="M 164 78 L 180 42 L 150 62 Z" /><circle class="glow-fill outline-stroke" cx="128" cy="96" r="48" /><path class="body-fill outline-stroke" d="M 96 138 C 96 118 160 118 160 138 L 170 186 Q 168 210 128 210 Q 88 210 86 186 Z" /><path class="accent-fill outline-stroke" d="M 162 168 Q 212 148 188 206" fill="none" /><path class="accent-fill outline-stroke" d="M 110 202 Q 108 220 112 232" fill="none" /><path class="accent-fill outline-stroke" d="M 144 202 Q 146 220 142 232" fill="none" /><path class="fine-stroke" d="M 101 98 Q 110 102 119 98" /><path class="fine-stroke" d="M 137 98 Q 146 102 155 98" /><path class="fine-stroke" d="M 116 120 Q 128 126 140 120" /><path class="fine-stroke" d="M 94 112 H 66" /><path class="fine-stroke" d="M 96 122 H 70" /><path class="fine-stroke" d="M 162 112 H 190" /><path class="fine-stroke" d="M 160 122 H 186" /><circle class="blush-fill" cx="96" cy="118" r="8" opacity="0.26" /><circle class="blush-fill" cx="160" cy="118" r="8" opacity="0.26" /></g></g></svg>
