<svg xmlns="http://www.w3.org/2000/svg" viewBox="0 0 256 256" role="img" aria-label="axolotl neglected blink"><style>.body-fill{fill:var(--color-species-axolotl-body,#ffd6e5);opacity:0.82;}.accent-fill{fill:var(--color-species-axolotl-accent,#ff92b2);opacity:0.82;}.blush-fill{fill:var(--color-species-axolotl-blush,#ff6f91);}.glow-fill{fill:var(--color-species-axolotl-glow,#ffe8f0);}.outline-stroke{stroke:var(--color-species-axolotl-outline,#473643);stroke-width:6;stroke-linecap:round;stroke-linejoin:round;}.fine-stroke{stroke:var(--color-species-axolotl-outline,#473643);stroke-width:4;stroke-linecap:round;stroke-linejoin:round;}.mood-accent-fill{fill:var(--color-state-neglected-accent,#8e9b6e);}.mood-accent-stroke{stroke:var(--color-state-neglected-accent,#8e9b6e);stroke-width:5;stroke-linecap:round;stroke-linejoin:round;}.mood-bg-fill{fill:var(--color-state-neglected-bg,#e6e2d4);}.mood-fg-fill{fill:var(--color-state-neglected-fg,#544e3c);}.shadow-fill{fill:#c78ba0;opacity:0.22;}</style><ellipse class="shadow-fill" cx="128" cy="222" rx="54" ry="16" /><path class="mood-accent-stroke" d="M 58 201 Q 68 182 82 192" opacity="0.74" /><circle class="mood-accent-fill" cx="198" cy="196" r="4" opacity="0.82" /><g transform="translate(-8 0)"><g id="pet-axolotl" transform="translate(0 0)"><path class="accent-fill outline-stroke" d="M 81 95 C 56 71 35 95 62 117 C 66 111 73 103 81 95 Z" /><path class="accent-fill outline-stroke" d="M 72 114 C 45 112 35 132 62 142 C 65 133 68 124 72 114 Z" /><path class="accent-fill outline-stroke" d="M 173 95 C 198 71 221 95 194 117 C 190 111 182 103 173 95 Z" /><path class="accent-fill outline-stroke" d="M 184 114 C 211 112 221 132 194 142 C 191 133 188 124 184 114 Z" /><ellipse class="glow-fill outline-stroke" cx="128" cy="94" rx="54" ry="44" /><ellipse class="body-fill outline-stroke" cx="128" cy="163" rx="48" ry="38" /><path class="body-fill outline-stroke" d="M 104 175 Q 86 209 96 231 Q 114 215 124 187" /><path class="body-fill outline-stroke" d="M 152 175 Q 170 209 160 231 Q 142 215 132 187" /><path class="accent-fill outline-stroke" d="M 116 211 Q 120 233 114 247" /><path class="accent-fill outline-stroke" d="M 140 211 Q 136 233 142 247" /><path class="fine-stroke" d="M 99 96 Q 108 100 117 96" /><path class="fine-stroke" d="M 139 96 Q 148 100 157 96" /><path class="fine-stroke" d="M 118 125 Q 128 130 138 125" opacity="0.74" /><circle class="blush-fill" cx="88" cy="118" r="9" opacity="0.18" /><circle class="blush-fill" cx="168" cy="118" r="9" opacity="0.18" /></g></g></svg>
