<svg xmlns="http://www.w3.org/2000/svg" viewBox="0 0 256 256" role="img" aria-label="axolotl neglected breath-b"><style>.body-fill{fill:var(--color-species-axolotl-body,#ffc9dd);opacity:0.86;}.accent-fill{fill:var(--color-species-axolotl-accent,#ff8fb1);opacity:0.86;}.belly-fill{fill:var(--color-species-axolotl-belly,#fff3f7);opacity:0.86;}.blush-fill{fill:var(--color-species-axolotl-blush,#ff5e85);}.glow-fill{fill:var(--color-species-axolotl-glow,#ffeaf2);}.outline-stroke{stroke:var(--color-species-axolotl-outline,#3a2933);stroke-width:6;stroke-linecap:round;stroke-linejoin:round;}.fine-stroke{stroke:var(--color-species-axolotl-outline,#3a2933);stroke-width:4;stroke-linecap:round;stroke-linejoin:round;}.mood-accent-fill{fill:var(--color-state-neglected-accent,#8e9b6e);}.mood-accent-stroke{stroke:var(--color-state-neglected-accent,#8e9b6e);stroke-width:5;stroke-linecap:round;stroke-linejoin:round;}.mood-bg-fill{fill:var(--color-state-neglected-bg,#e6e2d4);}.mood-fg-fill{fill:var(--color-state-neglected-fg,#544e3c);}.shadow-fill{fill:#c78ba0;opacity:0.22;}</style><ellipse class="shadow-fill" cx="128" cy="222" rx="54" ry="16" /><path class="mood-accent-stroke" d="M 58 201 Q 68 182 82 192" opacity="0.74" /><circle class="mood-accent-fill" cx="198" cy="196" r="4" opacity="0.82" /><g transform="translate(-6 0)"><g transform="translate(0 2)"><path class="accent-fill outline-stroke" d="M 81 97 C 56 73 35 97 62 119 C 66 113 73 105 81 97 Z" /><path class="accent-fill outline-stroke" d="M 72 116 C 45 114 35 134 62 144 C 65 135 68 126 72 116 Z" /><path class="accent-fill outline-stroke" d="M 173 97 C 198 73 221 97 194 119 C 190 113 182 105 173 97 Z" /><path class="accent-fill outline-stroke" d="M 184 116 C 211 114 221 134 194 144 C 191 135 188 126 184 116 Z" /><ellipse class="body-fill outline-stroke" cx="128" cy="96" rx="54" ry="44" /><ellipse class="belly-fill" cx="128" cy="112" rx="40" ry="24" opacity="0.78" /><ellipse class="body-fill outline-stroke" cx="128" cy="165" rx="48" ry="37" /><ellipse class="belly-fill" cx="128" cy="171" rx="30" ry="22" opacity="0.7" /><path class="body-fill outline-stroke" d="M 104 177 Q 86 211 96 233 Q 114 217 124 189" /><path class="body-fill outline-stroke" d="M 152 177 Q 170 211 160 233 Q 142 217 132 189" /><path class="accent-fill outline-stroke" d="M 116 213 Q 120 235 114 249" /><path class="accent-fill outline-stroke" d="M 140 213 Q 136 235 142 249" /><ellipse class="mood-fg-fill" cx="108" cy="98" rx="5" ry="6" opacity="0.72" /><ellipse class="mood-fg-fill" cx="148" cy="98" rx="5" ry="6" opacity="0.72" /><path class="fine-stroke" d="M 118 127 Q 128 132 138 127" opacity="0.74" /><circle class="blush-fill" cx="88" cy="120" r="9" opacity="0.18" /><circle class="blush-fill" cx="168" cy="120" r="9" opacity="0.18" /></g></g></svg>
