<svg xmlns="http://www.w3.org/2000/svg" viewBox="0 0 256 256" role="img" aria-label="axolotl neglected breath-a"><style>.body-fill{fill:var(--color-species-axolotl-body,#ffd6e5);opacity:0.82;}.accent-fill{fill:var(--color-species-axolotl-accent,#ff92b2);opacity:0.82;}.blush-fill{fill:var(--color-species-axolotl-blush,#ff6f91);}.glow-fill{fill:var(--color-species-axolotl-glow,#ffe8f0);}.outline-stroke{stroke:var(--color-species-axolotl-outline,#473643);stroke-width:6;stroke-linecap:round;stroke-linejoin:round;}.fine-stroke{stroke:var(--color-species-axolotl-outline,#473643);stroke-width:4;stroke-linecap:round;stroke-linejoin:round;}.mood-accent-fill{fill:var(--color-state-neglected-accent,#8e9b6e);}.mood-accent-stroke{stroke:var(--color-state-neglected-accent,#8e9b6e);stroke-width:5;stroke-linecap:round;stroke-linejoin:round;}.mood-bg-fill{fill:var(--color-state-neglected-bg,#e6e2d4);}.mood-fg-fill{fill:var(--color-state-neglected-fg,#544e3c);}.shadow-fill{fill:#c78ba0;opacity:0.22;}</style><ellipse class="shadow-fill" cx="128" cy="222" rx="54" ry="16" /><path class="mood-accent-stroke" d="M 58 201 Q 68 182 82 192" opacity="0.74" /><circle class="mood-accent-fill" cx="198" cy="196" r="4" opacity="0.82" /><g transform="translate(-10 0)"><g id="pet-axolotl" transform="translate(0 -3)"><path class="accent-fill outline-stroke" d="M 81 92 C 56 68 35 92 62 114 C 66 108 73 100 81 92 Z" /><path class="accent-fill outline-stroke" d="M 72 111 C 45 109 35 129 62 139 C 65 130 68 121 72 111 Z" /><path class="accent-fill outline-stroke" d="M 173 92 C 198 68 221 92 194 114 C 190 108 182 100 173 92 Z" /><path class="accent-fill outline-stroke" d="M 184 111 C 211 109 221 129 194 139 C 191 130 188 121 184 111 Z" /><ellipse class="glow-fill outline-stroke" cx="128" cy="91" rx="54" ry="44" /><ellipse class="body-fill outline-stroke" cx="128" cy="160" rx="48" ry="39" /><path class="body-fill outline-stroke" d="M 104 172 Q 86 206 96 228 Q 114 212 124 184" /><path class="body-fill outline-stroke" d="M 152 172 Q 170 206 160 228 Q 142 212 132 184" /><path class="accent-fill outline-stroke" d="M 116 208 Q 120 230 114 244" /><path class="accent-fill outline-stroke" d="M 140 208 Q 136 230 142 244" /><ellipse class="mood-fg-fill" cx="108" cy="93" rx="5" ry="6" opacity="0.72" /><ellipse class="mood-fg-fill" cx="148" cy="93" rx="5" ry="6" opacity="0.72" /><path class="fine-stroke" d="M 118 122 Q 128 127 138 122" opacity="0.74" /><circle class="blush-fill" cx="88" cy="115" r="9" opacity="0.18" /><circle class="blush-fill" cx="168" cy="115" r="9" opacity="0.18" /></g></g></svg>
