<svg xmlns="http://www.w3.org/2000/svg" viewBox="0 0 256 256" role="img" aria-label="axolotl neglected reaction-wilt"><style>.body-fill{fill:var(--color-species-axolotl-body,#ffd6e5);opacity:0.82;}.accent-fill{fill:var(--color-species-axolotl-accent,#ff92b2);opacity:0.82;}.blush-fill{fill:var(--color-species-axolotl-blush,#ff6f91);}.glow-fill{fill:var(--color-species-axolotl-glow,#ffe8f0);}.outline-stroke{stroke:var(--color-species-axolotl-outline,#473643);stroke-width:6;stroke-linecap:round;stroke-linejoin:round;}.fine-stroke{stroke:var(--color-species-axolotl-outline,#473643);stroke-width:4;stroke-linecap:round;stroke-linejoin:round;}.mood-accent-fill{fill:var(--color-state-neglected-accent,#8e9b6e);}.mood-accent-stroke{stroke:var(--color-state-neglected-accent,#8e9b6e);stroke-width:5;stroke-linecap:round;stroke-linejoin:round;}.mood-bg-fill{fill:var(--color-state-neglected-bg,#e6e2d4);}.mood-fg-fill{fill:var(--color-state-neglected-fg,#544e3c);}.shadow-fill{fill:#c78ba0;opacity:0.22;}</style><ellipse class="shadow-fill" cx="128" cy="222" rx="54" ry="16" /><path class="mood-accent-stroke" d="M 58 201 Q 68 182 82 192" opacity="0.74" /><circle class="mood-accent-fill" cx="198" cy="196" r="4" opacity="0.82" /><g transform="translate(-18 0)"><g id="pet-axolotl" transform="translate(0 10)"><path class="accent-fill outline-stroke" d="M 81 105 C 56 89 35 105 62 127 C 66 121 73 113 81 105 Z" /><path class="accent-fill outline-stroke" d="M 72 124 C 45 126 35 142 62 152 C 65 143 68 134 72 124 Z" /><path class="accent-fill outline-stroke" d="M 173 105 C 198 89 221 105 194 127 C 190 121 182 113 173 105 Z" /><path class="accent-fill outline-stroke" d="M 184 124 C 211 126 221 142 194 152 C 191 143 188 134 184 124 Z" /><ellipse class="glow-fill outline-stroke" cx="128" cy="104" rx="54" ry="44" /><ellipse class="body-fill outline-stroke" cx="128" cy="183" rx="48" ry="36" /><path class="body-fill outline-stroke" d="M 104 195 Q 86 229 96 235 Q 114 235 124 207" /><path class="body-fill outline-stroke" d="M 152 195 Q 170 229 160 235 Q 142 235 132 207" /><path class="accent-fill outline-stroke" d="M 116 231 Q 120 253 114 267" /><path class="accent-fill outline-stroke" d="M 140 231 Q 136 253 142 267" /><ellipse class="mood-fg-fill" cx="108" cy="106" rx="5" ry="6" opacity="0.72" /><ellipse class="mood-fg-fill" cx="148" cy="106" rx="5" ry="6" opacity="0.72" /><path class="fine-stroke" d="M 118 135 Q 128 140 138 135" opacity="0.74" /><circle class="blush-fill" cx="88" cy="128" r="9" opacity="0.18" /><circle class="blush-fill" cx="168" cy="128" r="9" opacity="0.18" /></g></g></svg>
