<svg xmlns="http://www.w3.org/2000/svg" viewBox="0 0 256 256" role="img" aria-label="axolotl neglected reminder-speak"><style>.body-fill{fill:var(--color-species-axolotl-body,#ffc9dd);opacity:0.86;}.accent-fill{fill:var(--color-species-axolotl-accent,#ff8fb1);opacity:0.86;}.belly-fill{fill:var(--color-species-axolotl-belly,#fff3f7);opacity:0.86;}.blush-fill{fill:var(--color-species-axolotl-blush,#ff5e85);}.glow-fill{fill:var(--color-species-axolotl-glow,#ffeaf2);}.outline-stroke{stroke:var(--color-species-axolotl-outline,#3a2933);stroke-width:6;stroke-linecap:round;stroke-linejoin:round;}.fine-stroke{stroke:var(--color-species-axolotl-outline,#3a2933);stroke-width:4;stroke-linecap:round;stroke-linejoin:round;}.mood-accent-fill{fill:var(--color-state-neglected-accent,#8e9b6e);}.mood-accent-stroke{stroke:var(--color-state-neglected-accent,#8e9b6e);stroke-width:5;stroke-linecap:round;stroke-linejoin:round;}.mood-bg-fill{fill:var(--color-state-neglected-bg,#e6e2d4);}.mood-fg-fill{fill:var(--color-state-neglected-fg,#544e3c);}.shadow-fill{fill:#c78ba0;opacity:0.22;}</style><ellipse class="shadow-fill" cx="128" cy="222" rx="54" ry="16" /><path class="mood-accent-stroke" d="M 58 201 Q 68 182 82 192" opacity="0.74" /><circle class="mood-accent-fill" cx="198" cy="196" r="4" opacity="0.82" /><g transform="translate(-1 0)"><g transform="translate(0 -5)"><path class="accent-fill outline-stroke" d="M 81 90 C 56 56 35 90 62 112 C 66 106 73 98 81 90 Z" /><path class="accent-fill outline-stroke" d="M 72 109 C 45 102 35 127 62 137 C 65 128 68 119 72 109 Z" /><path class="accent-fill outline-stroke" d="M 173 90 C 198 56 221 90 194 112 C 190 106 182 98 173 90 Z" /><path class="accent-fill outline-stroke" d="M 184 109 C 211 102 221 127 194 137 C 191 128 188 119 184 109 Z" /><ellipse class="body-fill outline-stroke" cx="128" cy="89" rx="54" ry="44" /><ellipse class="belly-fill" cx="128" cy="105" rx="40" ry="24" opacity="0.78" /><ellipse class="body-fill outline-stroke" cx="128" cy="158" rx="48" ry="38" /><ellipse class="belly-fill" cx="128" cy="164" rx="30" ry="22" opacity="0.7" /><path class="body-fill outline-stroke" d="M 104 170 Q 86 204 96 226 Q 114 210 124 182" /><path class="body-fill outline-stroke" d="M 152 170 Q 170 204 160 226 Q 142 210 132 182" /><path class="accent-fill outline-stroke" d="M 116 206 Q 120 228 114 242" /><path class="accent-fill outline-stroke" d="M 140 206 Q 136 228 142 242" /><ellipse class="mood-fg-fill" cx="108" cy="91" rx="5" ry="6" opacity="0.72" /><ellipse class="mood-fg-fill" cx="148" cy="91" rx="5" ry="6" opacity="0.72" /><path class="outline-stroke" d="M 116 115 Q 128 133 140 115" fill="var(--color-state-neglected-fg,#544e3c)" /><circle class="blush-fill" cx="88" cy="113" r="9" opacity="0.18" /><circle class="blush-fill" cx="168" cy="113" r="9" opacity="0.18" /></g></g></svg>
