<svg xmlns="http://www.w3.org/2000/svg" viewBox="0 0 256 256" role="img" aria-label="cat stressed breath-a"><style>.body-fill{fill:var(--color-species-cat-body,#ffe4b8);opacity:1;}.accent-fill{fill:var(--color-species-cat-accent,#f6b15d);opacity:1;}.blush-fill{fill:var(--color-species-cat-blush,#ff926b);}.glow-fill{fill:var(--color-species-cat-glow,#fff0d8);}.outline-stroke{stroke:var(--color-species-cat-outline,#4b3a2a);stroke-width:6;stroke-linecap:round;stroke-linejoin:round;}.fine-stroke{stroke:var(--color-species-cat-outline,#4b3a2a);stroke-width:4;stroke-linecap:round;stroke-linejoin:round;}.mood-accent-fill{fill:var(--color-state-stressed-accent,#89a4d5);}.mood-accent-stroke{stroke:var(--color-state-stressed-accent,#89a4d5);stroke-width:5;stroke-linecap:round;stroke-linejoin:round;}.mood-bg-fill{fill:var(--color-state-stressed-bg,#ffe1d4);}.mood-fg-fill{fill:var(--color-state-stressed-fg,#a34a1f);}.shadow-fill{fill:#c79a5e;opacity:0.22;}</style><ellipse class="shadow-fill" cx="128" cy="222" rx="56" ry="16" /><path class="mood-accent-stroke" d="M 193 66 Q 204 47 218 66" /><path class="mood-accent-stroke" d="M 196 73 L 192 88" /><path class="mood-accent-stroke" d="M 208 74 L 204 90" /><path class="mood-accent-stroke" d="M 61 88 Q 64 66 78 74" opacity="0.65" /><g transform="translate(0 0)"><g id="pet-cat" transform="translate(0 -3)"><path class="accent-fill outline-stroke" d="M 92 75 L 76 39 L 106 59 Z" /><path class="accent-fill outline-stroke" d="M 164 75 L 180 39 L 150 59 Z" /><circle class="glow-fill outline-stroke" cx="128" cy="93" r="48" /><path class="body-fill outline-stroke" d="M 96 135 C 96 115 160 115 160 135 L 170 186 Q 168 210 128 210 Q 88 210 86 186 Z" /><path class="accent-fill outline-stroke" d="M 162 165 Q 212 133 188 191" fill="none" /><path class="accent-fill outline-stroke" d="M 110 202 Q 108 220 112 232" fill="none" /><path class="accent-fill outline-stroke" d="M 144 202 Q 146 220 142 232" fill="none" /><path class="fine-stroke" d="M 100 87 L 118 103" /><path class="fine-stroke" d="M 100 103 L 118 87" /><path class="fine-stroke" d="M 138 87 L 156 103" /><path class="fine-stroke" d="M 138 103 L 156 87" /><path class="fine-stroke" d="M 113 117 Q 121 110 128 117 Q 135 124 143 117" /><path class="fine-stroke" d="M 94 109 H 66" /><path class="fine-stroke" d="M 96 119 H 70" /><path class="fine-stroke" d="M 162 109 H 190" /><path class="fine-stroke" d="M 160 119 H 186" /><circle class="blush-fill" cx="96" cy="115" r="8" opacity="0.26" /><circle class="blush-fill" cx="160" cy="115" r="8" opacity="0.26" /></g></g></svg>
