<svg xmlns="http://www.w3.org/2000/svg" viewBox="0 0 256 256" role="img" aria-label="cat stressed reminder-speak"><style>.body-fill{fill:var(--color-species-cat-body,#ffe4b8);opacity:1;}.accent-fill{fill:var(--color-species-cat-accent,#f6b15d);opacity:1;}.blush-fill{fill:var(--color-species-cat-blush,#ff926b);}.glow-fill{fill:var(--color-species-cat-glow,#fff0d8);}.outline-stroke{stroke:var(--color-species-cat-outline,#4b3a2a);stroke-width:6;stroke-linecap:round;stroke-linejoin:round;}.fine-stroke{stroke:var(--color-species-cat-outline,#4b3a2a);stroke-width:4;stroke-linecap:round;stroke-linejoin:round;}.mood-accent-fill{fill:var(--color-state-stressed-accent,#89a4d5);}.mood-accent-stroke{stroke:var(--color-state-stressed-accent,#89a4d5);stroke-width:5;stroke-linecap:round;stroke-linejoin:round;}.mood-bg-fill{fill:var(--color-state-stressed-bg,#ffe1d4);}.mood-fg-fill{fill:var(--color-state-stressed-fg,#a34a1f);}.shadow-fill{fill:#c79a5e;opacity:0.22;}</style><ellipse class="shadow-fill" cx="128" cy="222" rx="56" ry="16" /><path class="mood-accent-stroke" d="M 193 66 Q 204 47 218 66" /><path class="mood-accent-stroke" d="M 196 73 L 192 88" /><path class="mood-accent-stroke" d="M 208 74 L 204 90" /><path class="mood-accent-stroke" d="M 61 88 Q 64 66 78 74" opacity="0.65" /><g transform="translate(7 0)"><g id="pet-cat" transform="translate(0 -5)"><path class="accent-fill outline-stroke" d="M 92 73 L 76 27 L 106 57 Z" /><path class="accent-fill outline-stroke" d="M 164 73 L 180 27 L 150 57 Z" /><circle class="glow-fill outline-stroke" cx="128" cy="91" r="48" /><path class="body-fill outline-stroke" d="M 96 133 C 96 113 160 113 160 133 L 170 186 Q 168 210 128 210 Q 88 210 86 186 Z" /><path class="accent-fill outline-stroke" d="M 162 163 Q 212 131 188 189" fill="none" /><path class="accent-fill outline-stroke" d="M 110 202 Q 108 220 112 232" fill="none" /><path class="accent-fill outline-stroke" d="M 144 202 Q 146 220 142 232" fill="none" /><path class="fine-stroke" d="M 100 85 L 118 101" /><path class="fine-stroke" d="M 100 101 L 118 85" /><path class="fine-stroke" d="M 138 85 L 156 101" /><path class="fine-stroke" d="M 138 101 L 156 85" /><path class="fine-stroke" d="M 113 115 Q 121 108 128 115 Q 135 122 143 115" /><path class="fine-stroke" d="M 94 107 H 66" /><path class="fine-stroke" d="M 96 117 H 70" /><path class="fine-stroke" d="M 162 107 H 190" /><path class="fine-stroke" d="M 160 117 H 186" /><circle class="blush-fill" cx="96" cy="113" r="8" opacity="0.26" /><circle class="blush-fill" cx="160" cy="113" r="8" opacity="0.26" /></g></g></svg>
