<svg xmlns="http://www.w3.org/2000/svg" viewBox="0 0 256 256" role="img" aria-label="slime neglected breath-a"><style>.body-fill{fill:var(--color-species-slime-body,#c4f2cb);opacity:0.82;}.accent-fill{fill:var(--color-species-slime-accent,#58cc7c);opacity:0.82;}.blush-fill{fill:var(--color-species-slime-blush,#3fa862);}.glow-fill{fill:var(--color-species-slime-glow,#e7ffe8);}.outline-stroke{stroke:var(--color-species-slime-outline,#30543d);stroke-width:6;stroke-linecap:round;stroke-linejoin:round;}.fine-stroke{stroke:var(--color-species-slime-outline,#30543d);stroke-width:4;stroke-linecap:round;stroke-linejoin:round;}.mood-accent-fill{fill:var(--color-state-neglected-accent,#8e9b6e);}.mood-accent-stroke{stroke:var(--color-state-neglected-accent,#8e9b6e);stroke-width:5;stroke-linecap:round;stroke-linejoin:round;}.mood-bg-fill{fill:var(--color-state-neglected-bg,#e6e2d4);}.mood-fg-fill{fill:var(--color-state-neglected-fg,#544e3c);}.shadow-fill{fill:#5d8f6d;opacity:0.22;}</style><ellipse class="shadow-fill" cx="128" cy="222" rx="58" ry="16" /><path class="mood-accent-stroke" d="M 58 201 Q 68 182 82 192" opacity="0.74" /><circle class="mood-accent-fill" cx="198" cy="196" r="4" opacity="0.82" /><g transform="translate(0 0)"><g id="pet-slime" transform="translate(0 -3)"><path class="glow-fill outline-stroke" d="M 76 188 Q 68 125 90 89 Q 110 53 128 51 Q 149 53 168 89 Q 190 123 180 188 Q 170 214 150 196 Q 136 208 128 202 Q 117 212 102 196 Q 84 214 76 188 Z" /><path class="accent-fill outline-stroke" d="M 112 99 Q 128 87 144 99" fill="none" /><path class="accent-fill outline-stroke" d="M 86 190 Q 104 216 118 196" fill="none" opacity="0.82" /><path class="accent-fill outline-stroke" d="M 170 194 Q 156 210 142 198" fill="none" opacity="0.82" /><ellipse class="mood-fg-fill" cx="108" cy="115" rx="5" ry="6" opacity="0.72" /><ellipse class="mood-fg-fill" cx="148" cy="115" rx="5" ry="6" opacity="0.72" /><path class="fine-stroke" d="M 118 150 Q 128 155 138 150" opacity="0.74" /><circle class="blush-fill" cx="94" cy="141" r="8" opacity="0.12" /><circle class="blush-fill" cx="162" cy="141" r="8" opacity="0.12" /></g></g></svg>
