<svg xmlns="http://www.w3.org/2000/svg" viewBox="0 0 256 256" role="img" aria-label="slime neglected reaction-wilt"><style>.body-fill{fill:var(--color-species-slime-body,#c4f2cb);opacity:0.82;}.accent-fill{fill:var(--color-species-slime-accent,#58cc7c);opacity:0.82;}.blush-fill{fill:var(--color-species-slime-blush,#3fa862);}.glow-fill{fill:var(--color-species-slime-glow,#e7ffe8);}.outline-stroke{stroke:var(--color-species-slime-outline,#30543d);stroke-width:6;stroke-linecap:round;stroke-linejoin:round;}.fine-stroke{stroke:var(--color-species-slime-outline,#30543d);stroke-width:4;stroke-linecap:round;stroke-linejoin:round;}.mood-accent-fill{fill:var(--color-state-neglected-accent,#8e9b6e);}.mood-accent-stroke{stroke:var(--color-state-neglected-accent,#8e9b6e);stroke-width:5;stroke-linecap:round;stroke-linejoin:round;}.mood-bg-fill{fill:var(--color-state-neglected-bg,#e6e2d4);}.mood-fg-fill{fill:var(--color-state-neglected-fg,#544e3c);}.shadow-fill{fill:#5d8f6d;opacity:0.22;}</style><ellipse class="shadow-fill" cx="128" cy="222" rx="58" ry="16" /><path class="mood-accent-stroke" d="M 58 201 Q 68 182 82 192" opacity="0.74" /><circle class="mood-accent-fill" cx="198" cy="196" r="4" opacity="0.82" /><g transform="translate(-7 0)"><g id="pet-slime" transform="translate(0 10)"><path class="glow-fill outline-stroke" d="M 76 198 Q 68 138 90 102 Q 110 66 128 64 Q 149 66 168 102 Q 190 136 180 198 Q 170 224 150 206 Q 136 218 128 212 Q 117 222 102 206 Q 84 224 76 198 Z" /><path class="accent-fill outline-stroke" d="M 112 112 Q 128 100 144 112" fill="none" /><path class="accent-fill outline-stroke" d="M 86 200 Q 104 226 118 206" fill="none" opacity="0.82" /><path class="accent-fill outline-stroke" d="M 170 204 Q 156 220 142 208" fill="none" opacity="0.82" /><ellipse class="mood-fg-fill" cx="108" cy="128" rx="5" ry="6" opacity="0.72" /><ellipse class="mood-fg-fill" cx="148" cy="128" rx="5" ry="6" opacity="0.72" /><path class="fine-stroke" d="M 118 163 Q 128 168 138 163" opacity="0.74" /><circle class="blush-fill" cx="94" cy="154" r="8" opacity="0.12" /><circle class="blush-fill" cx="162" cy="154" r="8" opacity="0.12" /></g></g></svg>
