<svg xmlns="http://www.w3.org/2000/svg" viewBox="0 0 256 256" role="img" aria-label="slime neglected reminder-speak"><style>.body-fill{fill:var(--color-species-slime-body,#a7eab2);opacity:0.86;}.accent-fill{fill:var(--color-species-slime-accent,#39b85f);opacity:0.86;}.belly-fill{fill:var(--color-species-slime-belly,#d6fadb);opacity:0.86;}.blush-fill{fill:var(--color-species-slime-blush,#2f8c49);}.glow-fill{fill:var(--color-species-slime-glow,#ecffef);}.outline-stroke{stroke:var(--color-species-slime-outline,#1e4028);stroke-width:6;stroke-linecap:round;stroke-linejoin:round;}.fine-stroke{stroke:var(--color-species-slime-outline,#1e4028);stroke-width:4;stroke-linecap:round;stroke-linejoin:round;}.mood-accent-fill{fill:var(--color-state-neglected-accent,#8e9b6e);}.mood-accent-stroke{stroke:var(--color-state-neglected-accent,#8e9b6e);stroke-width:5;stroke-linecap:round;stroke-linejoin:round;}.mood-bg-fill{fill:var(--color-state-neglected-bg,#e6e2d4);}.mood-fg-fill{fill:var(--color-state-neglected-fg,#544e3c);}.shadow-fill{fill:#5d8f6d;opacity:0.22;}</style><ellipse class="shadow-fill" cx="128" cy="222" rx="58" ry="16" /><path class="mood-accent-stroke" d="M 58 201 Q 68 182 82 192" opacity="0.74" /><circle class="mood-accent-fill" cx="198" cy="196" r="4" opacity="0.82" /><g transform="translate(4.8999999999999995 0)"><g transform="translate(0 -5)"><path class="body-fill outline-stroke" d="M 76 188 Q 68 123 90 87 Q 110 51 128 49 Q 149 51 168 87 Q 190 121 180 188 Q 170 214 150 196 Q 136 208 128 202 Q 117 212 102 196 Q 84 214 76 188 Z" /><path class="glow-fill" d="M 106 73 Q 128 57 150 73 Q 142 93 128 91 Q 112 93 106 73 Z" opacity="0.85" /><path class="accent-fill outline-stroke" d="M 112 97 Q 128 85 144 97" fill="none" /><path class="accent-fill outline-stroke" d="M 86 190 Q 104 216 118 196" fill="none" opacity="0.82" /><path class="accent-fill outline-stroke" d="M 170 194 Q 156 210 142 198" fill="none" opacity="0.82" /><ellipse class="mood-fg-fill" cx="108" cy="113" rx="5" ry="6" opacity="0.72" /><ellipse class="mood-fg-fill" cx="148" cy="113" rx="5" ry="6" opacity="0.72" /><path class="outline-stroke" d="M 116 143 Q 128 161 140 143" fill="var(--color-state-neglected-fg,#544e3c)" /><circle class="blush-fill" cx="94" cy="139" r="8" opacity="0.12" /><circle class="blush-fill" cx="162" cy="139" r="8" opacity="0.12" /></g></g></svg>
