<svg xmlns="http://www.w3.org/2000/svg" viewBox="0 0 256 256" role="img" aria-label="slime healthy reaction-happy"><style>.body-fill{fill:var(--color-species-slime-body,#c4f2cb);opacity:1;}.accent-fill{fill:var(--color-species-slime-accent,#58cc7c);opacity:1;}.blush-fill{fill:var(--color-species-slime-blush,#3fa862);}.glow-fill{fill:var(--color-species-slime-glow,#e7ffe8);}.outline-stroke{stroke:var(--color-species-slime-outline,#30543d);stroke-width:6;stroke-linecap:round;stroke-linejoin:round;}.fine-stroke{stroke:var(--color-species-slime-outline,#30543d);stroke-width:4;stroke-linecap:round;stroke-linejoin:round;}.mood-accent-fill{fill:var(--color-state-healthy-accent,#f3c95c);}.mood-accent-stroke{stroke:var(--color-state-healthy-accent,#f3c95c);stroke-width:5;stroke-linecap:round;stroke-linejoin:round;}.mood-bg-fill{fill:var(--color-state-healthy-bg,#fff8d2);}.mood-fg-fill{fill:var(--color-state-healthy-fg,#4b3a2a);}.shadow-fill{fill:#5d8f6d;opacity:0.22;}</style><ellipse class="shadow-fill" cx="128" cy="222" rx="58" ry="16" /><path class="mood-accent-stroke" d="M 70 60 L 70 44" opacity="1" /><path class="mood-accent-stroke" d="M 63 52 L 77 52" opacity="1" /><path class="mood-accent-stroke" d="M 185 54 L 193 40" opacity="1" /><path class="mood-accent-stroke" d="M 178 44 L 200 50" opacity="1" /><circle class="mood-accent-fill" cx="204" cy="84" r="7" opacity="0.75" /><g transform="translate(-6.3 0)"><g id="pet-slime" transform="translate(0 -18)"><path class="glow-fill outline-stroke" d="M 76 188 Q 68 110 90 74 Q 110 30 128 28 Q 149 30 168 74 Q 190 108 180 188 Q 170 202 150 196 Q 136 208 128 202 Q 117 212 102 196 Q 84 202 76 188 Z" /><path class="accent-fill outline-stroke" d="M 112 84 Q 128 72 144 84" fill="none" /><path class="accent-fill outline-stroke" d="M 86 190 Q 104 216 118 196" fill="none" opacity="0.82" /><path class="accent-fill outline-stroke" d="M 170 194 Q 156 210 142 198" fill="none" opacity="0.82" /><ellipse class="mood-fg-fill" cx="108" cy="100" rx="6" ry="8" /><ellipse class="mood-fg-fill" cx="148" cy="100" rx="6" ry="8" /><path class="outline-stroke" d="M 116 130 Q 128 148 140 130" fill="var(--color-state-healthy-fg,#4b3a2a)" /><circle class="blush-fill" cx="94" cy="126" r="8" opacity="0.2" /><circle class="blush-fill" cx="162" cy="126" r="8" opacity="0.2" /><circle class="mood-accent-fill" cx="200" cy="56" r="8" opacity="0.8" /><circle class="mood-accent-fill" cx="58" cy="66" r="5" opacity="0.76" /></g></g></svg>
