<svg xmlns="http://www.w3.org/2000/svg" viewBox="0 0 256 256" role="img" aria-label="cat neglected breath-a"><style>.body-fill{fill:var(--color-species-cat-body,#ffd9a6);opacity:0.86;}.accent-fill{fill:var(--color-species-cat-accent,#f29141);opacity:0.86;}.belly-fill{fill:var(--color-species-cat-belly,#fff7e6);opacity:0.86;}.blush-fill{fill:var(--color-species-cat-blush,#ff7a55);}.glow-fill{fill:var(--color-species-cat-glow,#fff2da);}.outline-stroke{stroke:var(--color-species-cat-outline,#3a2a1b);stroke-width:6;stroke-linecap:round;stroke-linejoin:round;}.fine-stroke{stroke:var(--color-species-cat-outline,#3a2a1b);stroke-width:4;stroke-linecap:round;stroke-linejoin:round;}.mood-accent-fill{fill:var(--color-state-neglected-accent,#8e9b6e);}.mood-accent-stroke{stroke:var(--color-state-neglected-accent,#8e9b6e);stroke-width:5;stroke-linecap:round;stroke-linejoin:round;}.mood-bg-fill{fill:var(--color-state-neglected-bg,#e6e2d4);}.mood-fg-fill{fill:var(--color-state-neglected-fg,#544e3c);}.shadow-fill{fill:#c79a5e;opacity:0.22;}</style><ellipse class="shadow-fill" cx="128" cy="222" rx="56" ry="16" /><path class="mood-accent-stroke" d="M 58 201 Q 68 182 82 192" opacity="0.74" /><circle class="mood-accent-fill" cx="198" cy="196" r="4" opacity="0.82" /><g transform="translate(-2 0)"><g transform="translate(0 -3)"><path class="accent-fill outline-stroke" d="M 92 75 L 76 39 L 106 59 Z" /><path class="accent-fill outline-stroke" d="M 164 75 L 180 39 L 150 59 Z" /><path class="blush-fill" d="M 96 67 L 86 47 L 103 59 Z" opacity="0.75" /><path class="blush-fill" d="M 160 67 L 170 47 L 153 59 Z" opacity="0.75" /><circle class="body-fill outline-stroke" cx="128" cy="93" r="48" /><path class="belly-fill" d="M 100 99 Q 128 125 156 99 Q 152 119 128 125 Q 104 119 100 99 Z" opacity="0.72" /><path class="body-fill outline-stroke" d="M 96 135 C 96 115 160 115 160 135 L 170 186 Q 168 210 128 210 Q 88 210 86 186 Z" /><path class="belly-fill" d="M 114 143 Q 128 198 142 143 Q 140 202 128 204 Q 116 202 114 143 Z" opacity="0.7" /><path class="accent-fill outline-stroke" d="M 162 165 Q 212 145 188 203" fill="none" /><path class="accent-fill outline-stroke" d="M 110 202 Q 108 220 112 232" fill="none" /><path class="accent-fill outline-stroke" d="M 144 202 Q 146 220 142 232" fill="none" /><ellipse class="mood-fg-fill" cx="110" cy="95" rx="5" ry="6" opacity="0.72" /><ellipse class="mood-fg-fill" cx="146" cy="95" rx="5" ry="6" opacity="0.72" /><path class="fine-stroke" d="M 118 120 Q 128 125 138 120" opacity="0.74" /><path class="fine-stroke" d="M 94 109 H 66" /><path class="fine-stroke" d="M 96 119 H 70" /><path class="fine-stroke" d="M 162 109 H 190" /><path class="fine-stroke" d="M 160 119 H 186" /><circle class="blush-fill" cx="96" cy="115" r="8" opacity="0.14" /><circle class="blush-fill" cx="160" cy="115" r="8" opacity="0.14" /></g></g></svg>
