<svg xmlns="http://www.w3.org/2000/svg" viewBox="0 0 256 256" role="img" aria-label="cat neglected breath-b"><style>.body-fill{fill:var(--color-species-cat-body,#ffd9a6);opacity:0.86;}.accent-fill{fill:var(--color-species-cat-accent,#f29141);opacity:0.86;}.belly-fill{fill:var(--color-species-cat-belly,#fff7e6);opacity:0.86;}.blush-fill{fill:var(--color-species-cat-blush,#ff7a55);}.glow-fill{fill:var(--color-species-cat-glow,#fff2da);}.outline-stroke{stroke:var(--color-species-cat-outline,#3a2a1b);stroke-width:6;stroke-linecap:round;stroke-linejoin:round;}.fine-stroke{stroke:var(--color-species-cat-outline,#3a2a1b);stroke-width:4;stroke-linecap:round;stroke-linejoin:round;}.mood-accent-fill{fill:var(--color-state-neglected-accent,#8e9b6e);}.mood-accent-stroke{stroke:var(--color-state-neglected-accent,#8e9b6e);stroke-width:5;stroke-linecap:round;stroke-linejoin:round;}.mood-bg-fill{fill:var(--color-state-neglected-bg,#e6e2d4);}.mood-fg-fill{fill:var(--color-state-neglected-fg,#544e3c);}.shadow-fill{fill:#c79a5e;opacity:0.22;}</style><ellipse class="shadow-fill" cx="128" cy="222" rx="56" ry="16" /><path class="mood-accent-stroke" d="M 58 201 Q 68 182 82 192" opacity="0.74" /><circle class="mood-accent-fill" cx="198" cy="196" r="4" opacity="0.82" /><g transform="translate(2 0)"><g transform="translate(0 2)"><path class="accent-fill outline-stroke" d="M 92 80 L 76 44 L 106 64 Z" /><path class="accent-fill outline-stroke" d="M 164 80 L 180 44 L 150 64 Z" /><path class="blush-fill" d="M 96 72 L 86 52 L 103 64 Z" opacity="0.75" /><path class="blush-fill" d="M 160 72 L 170 52 L 153 64 Z" opacity="0.75" /><circle class="body-fill outline-stroke" cx="128" cy="98" r="48" /><path class="belly-fill" d="M 100 104 Q 128 130 156 104 Q 152 124 128 130 Q 104 124 100 104 Z" opacity="0.72" /><path class="body-fill outline-stroke" d="M 96 140 C 96 120 160 120 160 140 L 170 186 Q 168 210 128 210 Q 88 210 86 186 Z" /><path class="belly-fill" d="M 114 148 Q 128 198 142 148 Q 140 202 128 204 Q 116 202 114 148 Z" opacity="0.7" /><path class="accent-fill outline-stroke" d="M 162 170 Q 212 150 188 208" fill="none" /><path class="accent-fill outline-stroke" d="M 110 202 Q 108 220 112 232" fill="none" /><path class="accent-fill outline-stroke" d="M 144 202 Q 146 220 142 232" fill="none" /><ellipse class="mood-fg-fill" cx="110" cy="100" rx="5" ry="6" opacity="0.72" /><ellipse class="mood-fg-fill" cx="146" cy="100" rx="5" ry="6" opacity="0.72" /><path class="fine-stroke" d="M 118 125 Q 128 130 138 125" opacity="0.74" /><path class="fine-stroke" d="M 94 114 H 66" /><path class="fine-stroke" d="M 96 124 H 70" /><path class="fine-stroke" d="M 162 114 H 190" /><path class="fine-stroke" d="M 160 124 H 186" /><circle class="blush-fill" cx="96" cy="120" r="8" opacity="0.14" /><circle class="blush-fill" cx="160" cy="120" r="8" opacity="0.14" /></g></g></svg>
