<svg xmlns="http://www.w3.org/2000/svg" viewBox="0 0 256 256" role="img" aria-label="cat healthy breath-b"><style>.body-fill{fill:var(--color-species-cat-body,#ffd9a6);opacity:1;}.accent-fill{fill:var(--color-species-cat-accent,#f29141);opacity:1;}.belly-fill{fill:var(--color-species-cat-belly,#fff7e6);opacity:1;}.blush-fill{fill:var(--color-species-cat-blush,#ff7a55);}.glow-fill{fill:var(--color-species-cat-glow,#fff2da);}.outline-stroke{stroke:var(--color-species-cat-outline,#3a2a1b);stroke-width:6;stroke-linecap:round;stroke-linejoin:round;}.fine-stroke{stroke:var(--color-species-cat-outline,#3a2a1b);stroke-width:4;stroke-linecap:round;stroke-linejoin:round;}.mood-accent-fill{fill:var(--color-state-healthy-accent,#f3c95c);}.mood-accent-stroke{stroke:var(--color-state-healthy-accent,#f3c95c);stroke-width:5;stroke-linecap:round;stroke-linejoin:round;}.mood-bg-fill{fill:var(--color-state-healthy-bg,#fff8d2);}.mood-fg-fill{fill:var(--color-state-healthy-fg,#4b3a2a);}.shadow-fill{fill:#c79a5e;opacity:0.22;}</style><ellipse class="shadow-fill" cx="128" cy="222" rx="56" ry="16" /><path class="mood-accent-stroke" d="M 70 60 L 70 44" opacity="0.88" /><path class="mood-accent-stroke" d="M 63 52 L 77 52" opacity="0.88" /><path class="mood-accent-stroke" d="M 185 54 L 193 40" opacity="0.88" /><path class="mood-accent-stroke" d="M 178 44 L 200 50" opacity="0.88" /><circle class="mood-accent-fill" cx="204" cy="84" r="5" opacity="0.75" /><g transform="translate(1 0)"><g transform="translate(0 2)"><path class="accent-fill outline-stroke" d="M 92 80 L 76 44 L 106 64 Z" /><path class="accent-fill outline-stroke" d="M 164 80 L 180 44 L 150 64 Z" /><path class="blush-fill" d="M 96 72 L 86 52 L 103 64 Z" opacity="0.75" /><path class="blush-fill" d="M 160 72 L 170 52 L 153 64 Z" opacity="0.75" /><circle class="body-fill outline-stroke" cx="128" cy="98" r="48" /><path class="belly-fill" d="M 100 104 Q 128 130 156 104 Q 152 124 128 130 Q 104 124 100 104 Z" opacity="0.72" /><path class="body-fill outline-stroke" d="M 96 140 C 96 120 160 120 160 140 L 170 186 Q 168 210 128 210 Q 88 210 86 186 Z" /><path class="belly-fill" d="M 114 148 Q 128 198 142 148 Q 140 202 128 204 Q 116 202 114 148 Z" opacity="0.7" /><path class="accent-fill outline-stroke" d="M 162 170 Q 212 150 188 208" fill="none" /><path class="accent-fill outline-stroke" d="M 110 202 Q 108 220 112 232" fill="none" /><path class="accent-fill outline-stroke" d="M 144 202 Q 146 220 142 232" fill="none" /><ellipse class="mood-fg-fill" cx="110" cy="100" rx="6" ry="8" /><ellipse class="mood-fg-fill" cx="146" cy="100" rx="6" ry="8" /><ellipse fill="#ffffff" cx="112" cy="97" rx="1.6" ry="2" opacity="0.9" /><ellipse fill="#ffffff" cx="148" cy="97" rx="1.6" ry="2" opacity="0.9" /><path class="fine-stroke" d="M 118 120 L 128 130 L 138 120" /><path class="fine-stroke" d="M 94 114 H 66" /><path class="fine-stroke" d="M 96 124 H 70" /><path class="fine-stroke" d="M 162 114 H 190" /><path class="fine-stroke" d="M 160 124 H 186" /><circle class="blush-fill" cx="96" cy="120" r="8" opacity="0.28" /><circle class="blush-fill" cx="160" cy="120" r="8" opacity="0.28" /></g></g></svg>
