<svg xmlns="http://www.w3.org/2000/svg" viewBox="0 0 256 256" role="img" aria-label="cat healthy reaction-happy"><style>.body-fill{fill:var(--color-species-cat-body,#ffd9a6);opacity:1;}.accent-fill{fill:var(--color-species-cat-accent,#f29141);opacity:1;}.belly-fill{fill:var(--color-species-cat-belly,#fff7e6);opacity:1;}.blush-fill{fill:var(--color-species-cat-blush,#ff7a55);}.glow-fill{fill:var(--color-species-cat-glow,#fff2da);}.outline-stroke{stroke:var(--color-species-cat-outline,#3a2a1b);stroke-width:6;stroke-linecap:round;stroke-linejoin:round;}.fine-stroke{stroke:var(--color-species-cat-outline,#3a2a1b);stroke-width:4;stroke-linecap:round;stroke-linejoin:round;}.mood-accent-fill{fill:var(--color-state-healthy-accent,#f3c95c);}.mood-accent-stroke{stroke:var(--color-state-healthy-accent,#f3c95c);stroke-width:5;stroke-linecap:round;stroke-linejoin:round;}.mood-bg-fill{fill:var(--color-state-healthy-bg,#fff8d2);}.mood-fg-fill{fill:var(--color-state-healthy-fg,#4b3a2a);}.shadow-fill{fill:#c79a5e;opacity:0.22;}</style><ellipse class="shadow-fill" cx="128" cy="222" rx="56" ry="16" /><path class="mood-accent-stroke" d="M 70 60 L 70 44" opacity="1" /><path class="mood-accent-stroke" d="M 63 52 L 77 52" opacity="1" /><path class="mood-accent-stroke" d="M 185 54 L 193 40" opacity="1" /><path class="mood-accent-stroke" d="M 178 44 L 200 50" opacity="1" /><circle class="mood-accent-fill" cx="204" cy="84" r="7" opacity="0.75" /><g transform="translate(-10 0)"><g transform="translate(0 -18)"><path class="accent-fill outline-stroke" d="M 92 60 L 76 16 L 106 44 Z" /><path class="accent-fill outline-stroke" d="M 164 60 L 180 16 L 150 44 Z" /><path class="blush-fill" d="M 96 52 L 86 24 L 103 44 Z" opacity="0.75" /><path class="blush-fill" d="M 160 52 L 170 24 L 153 44 Z" opacity="0.75" /><circle class="body-fill outline-stroke" cx="128" cy="78" r="48" /><path class="belly-fill" d="M 100 84 Q 128 110 156 84 Q 152 104 128 110 Q 104 104 100 84 Z" opacity="0.72" /><path class="body-fill outline-stroke" d="M 96 120 C 96 100 160 100 160 120 L 170 186 Q 168 210 128 210 Q 88 210 86 186 Z" /><path class="belly-fill" d="M 114 128 Q 128 198 142 128 Q 140 202 128 204 Q 116 202 114 128 Z" opacity="0.7" /><path class="accent-fill outline-stroke" d="M 162 150 Q 212 112 188 170" fill="none" /><path class="accent-fill outline-stroke" d="M 110 202 Q 108 220 112 232" fill="none" /><path class="accent-fill outline-stroke" d="M 144 202 Q 146 220 142 232" fill="none" /><ellipse class="mood-fg-fill" cx="110" cy="80" rx="6" ry="8" /><ellipse class="mood-fg-fill" cx="146" cy="80" rx="6" ry="8" /><ellipse fill="#ffffff" cx="112" cy="77" rx="1.6" ry="2" opacity="0.9" /><ellipse fill="#ffffff" cx="148" cy="77" rx="1.6" ry="2" opacity="0.9" /><path class="outline-stroke" d="M 116 100 Q 128 118 140 100" fill="var(--color-state-healthy-fg,#4b3a2a)" /><path class="fine-stroke" d="M 94 94 H 66" /><path class="fine-stroke" d="M 96 104 H 70" /><path class="fine-stroke" d="M 162 94 H 190" /><path class="fine-stroke" d="M 160 104 H 186" /><circle class="blush-fill" cx="96" cy="100" r="8" opacity="0.28" /><circle class="blush-fill" cx="160" cy="100" r="8" opacity="0.28" /></g></g></svg>
