<svg xmlns="http://www.w3.org/2000/svg" viewBox="0 0 256 256" role="img" aria-label="cat healthy reminder-speak"><style>.body-fill{fill:var(--color-species-cat-body,#ffd9a6);opacity:1;}.accent-fill{fill:var(--color-species-cat-accent,#f29141);opacity:1;}.belly-fill{fill:var(--color-species-cat-belly,#fff7e6);opacity:1;}.blush-fill{fill:var(--color-species-cat-blush,#ff7a55);}.glow-fill{fill:var(--color-species-cat-glow,#fff2da);}.outline-stroke{stroke:var(--color-species-cat-outline,#3a2a1b);stroke-width:6;stroke-linecap:round;stroke-linejoin:round;}.fine-stroke{stroke:var(--color-species-cat-outline,#3a2a1b);stroke-width:4;stroke-linecap:round;stroke-linejoin:round;}.mood-accent-fill{fill:var(--color-state-healthy-accent,#f3c95c);}.mood-accent-stroke{stroke:var(--color-state-healthy-accent,#f3c95c);stroke-width:5;stroke-linecap:round;stroke-linejoin:round;}.mood-bg-fill{fill:var(--color-state-healthy-bg,#fff8d2);}.mood-fg-fill{fill:var(--color-state-healthy-fg,#4b3a2a);}.shadow-fill{fill:#c79a5e;opacity:0.22;}</style><ellipse class="shadow-fill" cx="128" cy="222" rx="56" ry="16" /><path class="mood-accent-stroke" d="M 70 60 L 70 44" opacity="0.88" /><path class="mood-accent-stroke" d="M 63 52 L 77 52" opacity="0.88" /><path class="mood-accent-stroke" d="M 185 54 L 193 40" opacity="0.88" /><path class="mood-accent-stroke" d="M 178 44 L 200 50" opacity="0.88" /><circle class="mood-accent-fill" cx="204" cy="84" r="5" opacity="0.75" /><g transform="translate(6 0)"><g transform="translate(0 -5)"><path class="accent-fill outline-stroke" d="M 92 73 L 76 27 L 106 57 Z" /><path class="accent-fill outline-stroke" d="M 164 73 L 180 27 L 150 57 Z" /><path class="blush-fill" d="M 96 65 L 86 35 L 103 57 Z" opacity="0.75" /><path class="blush-fill" d="M 160 65 L 170 35 L 153 57 Z" opacity="0.75" /><circle class="body-fill outline-stroke" cx="128" cy="91" r="48" /><path class="belly-fill" d="M 100 97 Q 128 123 156 97 Q 152 117 128 123 Q 104 117 100 97 Z" opacity="0.72" /><path class="body-fill outline-stroke" d="M 96 133 C 96 113 160 113 160 133 L 170 186 Q 168 210 128 210 Q 88 210 86 186 Z" /><path class="belly-fill" d="M 114 141 Q 128 198 142 141 Q 140 202 128 204 Q 116 202 114 141 Z" opacity="0.7" /><path class="accent-fill outline-stroke" d="M 162 163 Q 212 143 188 201" fill="none" /><path class="accent-fill outline-stroke" d="M 110 202 Q 108 220 112 232" fill="none" /><path class="accent-fill outline-stroke" d="M 144 202 Q 146 220 142 232" fill="none" /><ellipse class="mood-fg-fill" cx="110" cy="93" rx="6" ry="8" /><ellipse class="mood-fg-fill" cx="146" cy="93" rx="6" ry="8" /><ellipse fill="#ffffff" cx="112" cy="90" rx="1.6" ry="2" opacity="0.9" /><ellipse fill="#ffffff" cx="148" cy="90" rx="1.6" ry="2" opacity="0.9" /><path class="outline-stroke" d="M 116 113 Q 128 131 140 113" fill="var(--color-state-healthy-fg,#4b3a2a)" /><path class="fine-stroke" d="M 94 107 H 66" /><path class="fine-stroke" d="M 96 117 H 70" /><path class="fine-stroke" d="M 162 107 H 190" /><path class="fine-stroke" d="M 160 117 H 186" /><circle class="blush-fill" cx="96" cy="113" r="8" opacity="0.28" /><circle class="blush-fill" cx="160" cy="113" r="8" opacity="0.28" /></g></g></svg>
