<svg xmlns="http://www.w3.org/2000/svg" viewBox="0 0 256 256" role="img" aria-label="axolotl stressed blink"><style>.body-fill{fill:var(--color-species-axolotl-body,#ffc9dd);opacity:1;}.accent-fill{fill:var(--color-species-axolotl-accent,#ff8fb1);opacity:1;}.belly-fill{fill:var(--color-species-axolotl-belly,#fff3f7);opacity:1;}.blush-fill{fill:var(--color-species-axolotl-blush,#ff5e85);}.glow-fill{fill:var(--color-species-axolotl-glow,#ffeaf2);}.outline-stroke{stroke:var(--color-species-axolotl-outline,#3a2933);stroke-width:6;stroke-linecap:round;stroke-linejoin:round;}.fine-stroke{stroke:var(--color-species-axolotl-outline,#3a2933);stroke-width:4;stroke-linecap:round;stroke-linejoin:round;}.mood-accent-fill{fill:var(--color-state-stressed-accent,#89a4d5);}.mood-accent-stroke{stroke:var(--color-state-stressed-accent,#89a4d5);stroke-width:5;stroke-linecap:round;stroke-linejoin:round;}.mood-bg-fill{fill:var(--color-state-stressed-bg,#ffe1d4);}.mood-fg-fill{fill:var(--color-state-stressed-fg,#a34a1f);}.shadow-fill{fill:#c78ba0;opacity:0.22;}</style><ellipse class="shadow-fill" cx="128" cy="222" rx="54" ry="16" /><path class="mood-accent-stroke" d="M 193 66 Q 204 47 218 66" /><path class="mood-accent-stroke" d="M 196 73 L 192 88" /><path class="mood-accent-stroke" d="M 208 74 L 204 90" /><path class="mood-accent-stroke" d="M 61 88 Q 64 66 78 74" opacity="0.65" /><g transform="translate(4 0)"><g transform="translate(0 0)"><path class="accent-fill outline-stroke" d="M 81 95 C 56 71 35 95 62 117 C 66 111 73 103 81 95 Z" /><path class="accent-fill outline-stroke" d="M 72 114 C 45 112 35 132 62 142 C 65 133 68 124 72 114 Z" /><path class="accent-fill outline-stroke" d="M 173 95 C 198 71 221 95 194 117 C 190 111 182 103 173 95 Z" /><path class="accent-fill outline-stroke" d="M 184 114 C 211 112 221 132 194 142 C 191 133 188 124 184 114 Z" /><ellipse class="body-fill outline-stroke" cx="128" cy="94" rx="54" ry="44" /><ellipse class="belly-fill" cx="128" cy="110" rx="40" ry="24" opacity="0.78" /><ellipse class="body-fill outline-stroke" cx="128" cy="163" rx="48" ry="38" /><ellipse class="belly-fill" cx="128" cy="169" rx="30" ry="22" opacity="0.7" /><path class="body-fill outline-stroke" d="M 104 175 Q 86 209 96 231 Q 114 215 124 187" /><path class="body-fill outline-stroke" d="M 152 175 Q 170 209 160 231 Q 142 215 132 187" /><path class="accent-fill outline-stroke" d="M 116 211 Q 120 233 114 247" /><path class="accent-fill outline-stroke" d="M 140 211 Q 136 233 142 247" /><path class="fine-stroke" d="M 99 96 Q 108 100 117 96" /><path class="fine-stroke" d="M 139 96 Q 148 100 157 96" /><path class="fine-stroke" d="M 113 122 Q 121 115 128 122 Q 135 129 143 122" /><circle class="blush-fill" cx="88" cy="118" r="9" opacity="0.36" /><circle class="blush-fill" cx="168" cy="118" r="9" opacity="0.36" /></g></g></svg>
