<svg xmlns="http://www.w3.org/2000/svg" viewBox="0 0 256 256" role="img" aria-label="axolotl stressed breath-a"><style>.body-fill{fill:var(--color-species-axolotl-body,#ffc9dd);opacity:1;}.accent-fill{fill:var(--color-species-axolotl-accent,#ff8fb1);opacity:1;}.belly-fill{fill:var(--color-species-axolotl-belly,#fff3f7);opacity:1;}.blush-fill{fill:var(--color-species-axolotl-blush,#ff5e85);}.glow-fill{fill:var(--color-species-axolotl-glow,#ffeaf2);}.outline-stroke{stroke:var(--color-species-axolotl-outline,#3a2933);stroke-width:6;stroke-linecap:round;stroke-linejoin:round;}.fine-stroke{stroke:var(--color-species-axolotl-outline,#3a2933);stroke-width:4;stroke-linecap:round;stroke-linejoin:round;}.mood-accent-fill{fill:var(--color-state-stressed-accent,#89a4d5);}.mood-accent-stroke{stroke:var(--color-state-stressed-accent,#89a4d5);stroke-width:5;stroke-linecap:round;stroke-linejoin:round;}.mood-bg-fill{fill:var(--color-state-stressed-bg,#ffe1d4);}.mood-fg-fill{fill:var(--color-state-stressed-fg,#a34a1f);}.shadow-fill{fill:#c78ba0;opacity:0.22;}</style><ellipse class="shadow-fill" cx="128" cy="222" rx="54" ry="16" /><path class="mood-accent-stroke" d="M 193 66 Q 204 47 218 66" /><path class="mood-accent-stroke" d="M 196 73 L 192 88" /><path class="mood-accent-stroke" d="M 208 74 L 204 90" /><path class="mood-accent-stroke" d="M 61 88 Q 64 66 78 74" opacity="0.65" /><g transform="translate(2 0)"><g transform="translate(0 -3)"><path class="accent-fill outline-stroke" d="M 81 92 C 56 68 35 92 62 114 C 66 108 73 100 81 92 Z" /><path class="accent-fill outline-stroke" d="M 72 111 C 45 109 35 129 62 139 C 65 130 68 121 72 111 Z" /><path class="accent-fill outline-stroke" d="M 173 92 C 198 68 221 92 194 114 C 190 108 182 100 173 92 Z" /><path class="accent-fill outline-stroke" d="M 184 111 C 211 109 221 129 194 139 C 191 130 188 121 184 111 Z" /><ellipse class="body-fill outline-stroke" cx="128" cy="91" rx="54" ry="44" /><ellipse class="belly-fill" cx="128" cy="107" rx="40" ry="24" opacity="0.78" /><ellipse class="body-fill outline-stroke" cx="128" cy="160" rx="48" ry="39" /><ellipse class="belly-fill" cx="128" cy="166" rx="30" ry="22" opacity="0.7" /><path class="body-fill outline-stroke" d="M 104 172 Q 86 206 96 228 Q 114 212 124 184" /><path class="body-fill outline-stroke" d="M 152 172 Q 170 206 160 228 Q 142 212 132 184" /><path class="accent-fill outline-stroke" d="M 116 208 Q 120 230 114 244" /><path class="accent-fill outline-stroke" d="M 140 208 Q 136 230 142 244" /><path class="fine-stroke" d="M 98 85 L 116 101" /><path class="fine-stroke" d="M 98 101 L 116 85" /><path class="fine-stroke" d="M 140 85 L 158 101" /><path class="fine-stroke" d="M 140 101 L 158 85" /><path class="fine-stroke" d="M 113 119 Q 121 112 128 119 Q 135 126 143 119" /><circle class="blush-fill" cx="88" cy="115" r="9" opacity="0.36" /><circle class="blush-fill" cx="168" cy="115" r="9" opacity="0.36" /></g></g></svg>
