<svg xmlns="http://www.w3.org/2000/svg" viewBox="0 0 256 256" role="img" aria-label="axolotl stressed breath-b"><style>.body-fill{fill:var(--color-species-axolotl-body,#ffd6e5);opacity:1;}.accent-fill{fill:var(--color-species-axolotl-accent,#ff92b2);opacity:1;}.blush-fill{fill:var(--color-species-axolotl-blush,#ff6f91);}.glow-fill{fill:var(--color-species-axolotl-glow,#ffe8f0);}.outline-stroke{stroke:var(--color-species-axolotl-outline,#473643);stroke-width:6;stroke-linecap:round;stroke-linejoin:round;}.fine-stroke{stroke:var(--color-species-axolotl-outline,#473643);stroke-width:4;stroke-linecap:round;stroke-linejoin:round;}.mood-accent-fill{fill:var(--color-state-stressed-accent,#89a4d5);}.mood-accent-stroke{stroke:var(--color-state-stressed-accent,#89a4d5);stroke-width:5;stroke-linecap:round;stroke-linejoin:round;}.mood-bg-fill{fill:var(--color-state-stressed-bg,#ffe1d4);}.mood-fg-fill{fill:var(--color-state-stressed-fg,#a34a1f);}.shadow-fill{fill:#c78ba0;opacity:0.22;}</style><ellipse class="shadow-fill" cx="128" cy="222" rx="54" ry="16" /><path class="mood-accent-stroke" d="M 193 66 Q 204 47 218 66" /><path class="mood-accent-stroke" d="M 196 73 L 192 88" /><path class="mood-accent-stroke" d="M 208 74 L 204 90" /><path class="mood-accent-stroke" d="M 61 88 Q 64 66 78 74" opacity="0.65" /><g transform="translate(6 0)"><g id="pet-axolotl" transform="translate(0 2)"><path class="accent-fill outline-stroke" d="M 81 97 C 56 73 35 97 62 119 C 66 113 73 105 81 97 Z" /><path class="accent-fill outline-stroke" d="M 72 116 C 45 114 35 134 62 144 C 65 135 68 126 72 116 Z" /><path class="accent-fill outline-stroke" d="M 173 97 C 198 73 221 97 194 119 C 190 113 182 105 173 97 Z" /><path class="accent-fill outline-stroke" d="M 184 116 C 211 114 221 134 194 144 C 191 135 188 126 184 116 Z" /><ellipse class="glow-fill outline-stroke" cx="128" cy="96" rx="54" ry="44" /><ellipse class="body-fill outline-stroke" cx="128" cy="165" rx="48" ry="37" /><path class="body-fill outline-stroke" d="M 104 177 Q 86 211 96 233 Q 114 217 124 189" /><path class="body-fill outline-stroke" d="M 152 177 Q 170 211 160 233 Q 142 217 132 189" /><path class="accent-fill outline-stroke" d="M 116 213 Q 120 235 114 249" /><path class="accent-fill outline-stroke" d="M 140 213 Q 136 235 142 249" /><path class="fine-stroke" d="M 98 90 L 116 106" /><path class="fine-stroke" d="M 98 106 L 116 90" /><path class="fine-stroke" d="M 140 90 L 158 106" /><path class="fine-stroke" d="M 140 106 L 158 90" /><path class="fine-stroke" d="M 113 124 Q 121 117 128 124 Q 135 131 143 124" /><circle class="blush-fill" cx="88" cy="120" r="9" opacity="0.34" /><circle class="blush-fill" cx="168" cy="120" r="9" opacity="0.34" /></g></g></svg>
