<svg xmlns="http://www.w3.org/2000/svg" viewBox="0 0 256 256" role="img" aria-label="axolotl stressed reminder-speak"><style>.body-fill{fill:var(--color-species-axolotl-body,#ffc9dd);opacity:1;}.accent-fill{fill:var(--color-species-axolotl-accent,#ff8fb1);opacity:1;}.belly-fill{fill:var(--color-species-axolotl-belly,#fff3f7);opacity:1;}.blush-fill{fill:var(--color-species-axolotl-blush,#ff5e85);}.glow-fill{fill:var(--color-species-axolotl-glow,#ffeaf2);}.outline-stroke{stroke:var(--color-species-axolotl-outline,#3a2933);stroke-width:6;stroke-linecap:round;stroke-linejoin:round;}.fine-stroke{stroke:var(--color-species-axolotl-outline,#3a2933);stroke-width:4;stroke-linecap:round;stroke-linejoin:round;}.mood-accent-fill{fill:var(--color-state-stressed-accent,#89a4d5);}.mood-accent-stroke{stroke:var(--color-state-stressed-accent,#89a4d5);stroke-width:5;stroke-linecap:round;stroke-linejoin:round;}.mood-bg-fill{fill:var(--color-state-stressed-bg,#ffe1d4);}.mood-fg-fill{fill:var(--color-state-stressed-fg,#a34a1f);}.shadow-fill{fill:#c78ba0;opacity:0.22;}</style><ellipse class="shadow-fill" cx="128" cy="222" rx="54" ry="16" /><path class="mood-accent-stroke" d="M 193 66 Q 204 47 218 66" /><path class="mood-accent-stroke" d="M 196 73 L 192 88" /><path class="mood-accent-stroke" d="M 208 74 L 204 90" /><path class="mood-accent-stroke" d="M 61 88 Q 64 66 78 74" opacity="0.65" /><g transform="translate(11 0)"><g transform="translate(0 -5)"><path class="accent-fill outline-stroke" d="M 81 90 C 56 56 35 90 62 112 C 66 106 73 98 81 90 Z" /><path class="accent-fill outline-stroke" d="M 72 109 C 45 102 35 127 62 137 C 65 128 68 119 72 109 Z" /><path class="accent-fill outline-stroke" d="M 173 90 C 198 56 221 90 194 112 C 190 106 182 98 173 90 Z" /><path class="accent-fill outline-stroke" d="M 184 109 C 211 102 221 127 194 137 C 191 128 188 119 184 109 Z" /><ellipse class="body-fill outline-stroke" cx="128" cy="89" rx="54" ry="44" /><ellipse class="belly-fill" cx="128" cy="105" rx="40" ry="24" opacity="0.78" /><ellipse class="body-fill outline-stroke" cx="128" cy="158" rx="48" ry="38" /><ellipse class="belly-fill" cx="128" cy="164" rx="30" ry="22" opacity="0.7" /><path class="body-fill outline-stroke" d="M 104 170 Q 86 204 96 226 Q 114 210 124 182" /><path class="body-fill outline-stroke" d="M 152 170 Q 170 204 160 226 Q 142 210 132 182" /><path class="accent-fill outline-stroke" d="M 116 206 Q 120 228 114 242" /><path class="accent-fill outline-stroke" d="M 140 206 Q 136 228 142 242" /><path class="fine-stroke" d="M 98 83 L 116 99" /><path class="fine-stroke" d="M 98 99 L 116 83" /><path class="fine-stroke" d="M 140 83 L 158 99" /><path class="fine-stroke" d="M 140 99 L 158 83" /><path class="fine-stroke" d="M 113 117 Q 121 110 128 117 Q 135 124 143 117" /><circle class="blush-fill" cx="88" cy="113" r="9" opacity="0.36" /><circle class="blush-fill" cx="168" cy="113" r="9" opacity="0.36" /></g></g></svg>
