<svg xmlns="http://www.w3.org/2000/svg" viewBox="0 0 256 256" role="img" aria-label="slime sleep_deprived blink"><style>.body-fill{fill:var(--color-species-slime-body,#c4f2cb);opacity:1;}.accent-fill{fill:var(--color-species-slime-accent,#58cc7c);opacity:1;}.blush-fill{fill:var(--color-species-slime-blush,#3fa862);}.glow-fill{fill:var(--color-species-slime-glow,#e7ffe8);}.outline-stroke{stroke:var(--color-species-slime-outline,#30543d);stroke-width:6;stroke-linecap:round;stroke-linejoin:round;}.fine-stroke{stroke:var(--color-species-slime-outline,#30543d);stroke-width:4;stroke-linecap:round;stroke-linejoin:round;}.mood-accent-fill{fill:var(--color-state-sleep_deprived-accent,#b9c1ff);}.mood-accent-stroke{stroke:var(--color-state-sleep_deprived-accent,#b9c1ff);stroke-width:5;stroke-linecap:round;stroke-linejoin:round;}.mood-bg-fill{fill:var(--color-state-sleep_deprived-bg,#d5d8ff);}.mood-fg-fill{fill:var(--color-state-sleep_deprived-fg,#3a3a66);}.shadow-fill{fill:#5d8f6d;opacity:0.22;}</style><ellipse class="shadow-fill" cx="128" cy="222" rx="58" ry="16" /><path class="mood-bg-fill" d="M 188 58 Q 202 42 214 58 Q 205 60 201 73 Q 197 61 188 58 Z" opacity="0.7" /><circle class="mood-bg-fill" cx="56" cy="76" r="5" opacity="0.9" /><circle class="mood-bg-fill" cx="78" cy="56" r="4" opacity="0.82" /><g transform="translate(0 0)"><g id="pet-slime" transform="translate(0 0)"><path class="glow-fill outline-stroke" d="M 76 188 Q 68 128 90 92 Q 110 56 128 54 Q 149 56 168 92 Q 190 126 180 188 Q 170 202 150 196 Q 136 208 128 202 Q 117 212 102 196 Q 84 202 76 188 Z" /><path class="accent-fill outline-stroke" d="M 112 102 Q 128 90 144 102" fill="none" /><path class="accent-fill outline-stroke" d="M 86 190 Q 104 216 118 196" fill="none" opacity="0.82" /><path class="accent-fill outline-stroke" d="M 170 194 Q 156 210 142 198" fill="none" opacity="0.82" /><path class="fine-stroke" d="M 99 118 Q 108 122 117 118" /><path class="fine-stroke" d="M 139 118 Q 148 122 157 118" /><path class="fine-stroke" d="M 116 150 Q 128 156 140 150" /><circle class="blush-fill" cx="94" cy="144" r="8" opacity="0.2" /><circle class="blush-fill" cx="162" cy="144" r="8" opacity="0.2" /></g></g></svg>
