<svg xmlns="http://www.w3.org/2000/svg" width="100%" height="100%" viewBox="0 0 256 256" viewBox="0 0 1536 1024" version="1.1">
	<path fill-opacity="0.537" d="M -0 820.434 L -0 838.868 8.250 838.796 C 20.689 838.686, 27 841.835, 27 848.150 C 27 850.144, 27.695 849.746, 32.502 844.998 C 38.657 838.920, 46 825.963, 46 821.181 C 46 819.523, 46.531 817.990, 47.180 817.773 C 47.880 817.540, 48.075 816.637, 47.658 815.552 C 46.120 811.544, 29.909 815.999, 22.088 822.580 L 19.226 824.988 17.518 819.764 C 15.014 812.109, 11.045 807.053, 4.583 803.285 C 0.079 800.659, 0 800.953, -0 820.434 M 50 877.581 C 44.615 880.640, 39.630 885.271, 36.788 889.855 L 34.707 893.209 33.402 890.105 C 31.511 885.608, 29.413 886.208, 27.649 891.750 C 23.534 904.683, 24.867 909.066, 31.538 904.539 C 35.311 901.979, 41 901.093, 41 903.066 C 41 905.618, 38.805 907.814, 35.664 908.403 C 30.678 909.339, 28.922 911.720, 29.928 916.182 C 30.731 919.739, 30.672 919.839, 27.407 920.451 C 25.569 920.796, 23.297 921.846, 22.358 922.785 C 20.750 924.393, 20.877 924.530, 24.576 925.178 C 27.240 925.644, 29.927 925.337, 32.944 924.222 C 37.595 922.504, 47.377 921.997, 52.500 923.210 C 54.150 923.601, 54.938 923.676, 54.250 923.377 C 52.208 922.489, 52.819 921.262, 55.656 920.550 C 59.168 919.669, 61.888 922.018, 59.577 923.936 C 58.266 925.024, 58.887 925.815, 64.026 929.598 C 67.312 932.017, 70 934.447, 70 934.998 C 70 937.020, 77.439 936.039, 80.466 933.617 C 83.161 931.461, 83.323 931.004, 82.236 928.620 C 80.248 924.254, 75.350 921.907, 68.725 922.144 C 65.407 922.263, 62.458 921.858, 61.792 921.192 C 61.155 920.555, 60.828 919.904, 61.067 919.747 C 73.917 911.251, 79 906.528, 79 903.087 C 79 898.849, 64.495 897.095, 56.628 900.382 C 52.460 902.124, 52.374 901.896, 54.435 894.588 C 55.225 891.790, 56.374 887.250, 56.989 884.500 C 57.604 881.750, 58.360 878.487, 58.670 877.250 C 59.136 875.390, 58.823 875.002, 56.867 875.012 C 55.565 875.019, 52.475 876.175, 50 877.581 M 0.015 916.909 C 0.026 923.471, 0.337 926.026, 1 925 C 1.799 923.763, 1.972 923.860, 1.985 925.550 C 1.993 926.677, 1.438 928.168, 0.750 928.862 C 0.063 929.557, 1.975 928.976, 5 927.573 C 8.025 926.169, 12.637 924.733, 15.250 924.382 C 17.863 924.030, 20 923.380, 20 922.936 C 20 920.828, 17.608 916.220, 15.186 913.664 C 11.669 909.950, 9.402 908.771, 4.250 907.974 L 0 907.317 0.015 916.909 M 100.079 923.583 C 100.127 924.748, 100.364 924.985, 100.683 924.188 C 100.972 923.466, 100.936 922.603, 100.604 922.271 C 100.272 921.939, 100.036 922.529, 100.079 923.583 M 89.323 923.765 C 86.495 924.226, 84.801 926.319, 85.591 928.376 C 86.150 929.835, 86.627 929.776, 90.108 927.819 C 92.249 926.616, 94 925.313, 94 924.923 C 94 923.894, 91.831 923.357, 89.323 923.765 M 112.057 923.965 C 111.251 924.463, 112.004 924.927, 114.149 925.253 C 118.302 925.885, 118.684 925.633, 115.662 924.256 C 114.372 923.668, 112.749 923.537, 112.057 923.965 M 1464.500 924.573 C 1458.291 927.802, 1454.135 933.775, 1453.527 940.341 C 1453.367 942.079, 1452.696 944.850, 1452.037 946.500 C 1451.377 948.150, 1450.677 952.425, 1450.480 956 C 1450.283 959.575, 1450.095 962.647, 1450.061 962.827 C 1450.027 963.006, 1448.880 961.823, 1447.512 960.196 C 1442.715 954.496, 1434.847 952.476, 1429.072 955.463 C 1425.922 957.092, 1425 958.801, 1425 963.009 C 1425 969.116, 1432.846 971.578, 1443.640 968.860 C 1447.665 967.847, 1448.357 967.930, 1449.901 969.610 C 1453.323 973.336, 1453.950 976.343, 1451.847 978.941 L 1449.930 981.308 1447.215 978.717 C 1441.314 973.088, 1431.061 972.118, 1423.301 976.456 C 1419.715 978.460, 1418.466 978.762, 1417.841 977.777 C 1417.395 977.075, 1417.024 976.204, 1417.015 975.842 C 1416.982 974.396, 1407.803 964, 1406.560 964 C 1405.093 964, 1403.458 973.715, 1404.416 976.740 C 1404.906 978.288, 1404.223 978.506, 1398.737 978.551 C 1388.999 978.629, 1382.737 982.842, 1386.379 986.866 C 1389.032 989.798, 1388.297 989.994, 1382.343 987.946 C 1379.232 986.876, 1375.632 986, 1374.343 986 C 1371.486 986, 1371.451 985.580, 1374.008 981.989 C 1378.505 975.673, 1377.824 968.660, 1372.497 966.434 C 1367.594 964.386, 1363.253 964.669, 1357.337 967.424 L 1352.174 969.828 1351.575 967.441 C 1350.762 964.203, 1347.134 961, 1344.279 961 C 1341.071 961, 1335.028 963.635, 1332.131 966.298 C 1329.310 968.891, 1325.024 977.557, 1325.010 980.697 C 1325 982.870, 1324.941 982.862, 1319.398 979.947 C 1313.332 976.755, 1304.865 975.960, 1299.335 978.063 C 1295.727 979.435, 1295.033 980.630, 1295.020 985.500 C 1295.008 990.191, 1298.336 996.269, 1302.364 998.910 L 1305.111 1000.713 1300.525 1001.341 C 1290.506 1002.715, 1278.531 1011.119, 1274.034 1019.933 L 1271.956 1024.007 1404.228 1023.754 L 1536.500 1023.500 1536.249 992.583 C 1536.111 975.578, 1535.737 961.403, 1535.418 961.083 C 1535.098 960.762, 1531.499 960.500, 1527.421 960.500 C 1520.366 960.500, 1520.005 960.389, 1520.002 958.218 C 1519.998 954.169, 1517.247 949.179, 1514.128 947.566 C 1504.472 942.573, 1491.909 950.768, 1493.436 961.064 C 1493.901 964.205, 1493.508 965.074, 1490.133 968.370 L 1486.302 972.111 1482.547 969.895 C 1479.884 968.324, 1477.078 967.656, 1472.896 967.599 C 1469.653 967.555, 1467 967.372, 1467 967.193 C 1467 967.013, 1468.584 965.209, 1470.519 963.183 C 1475.961 957.487, 1476.412 951.644, 1471.506 950.412 C 1466.081 949.051, 1459.946 953.751, 1457.321 961.280 L 1455.500 966.500 1455.203 960.281 C 1455.040 956.861, 1455.365 952.358, 1455.926 950.275 C 1456.836 946.895, 1457.512 946.289, 1462.223 944.623 C 1469.689 941.982, 1477 934.599, 1477 929.700 C 1477 923.643, 1471.010 921.187, 1464.500 924.573 M 84.079 961.583 C 84.127 962.748, 84.364 962.985, 84.683 962.188 C 84.972 961.466, 84.936 960.603, 84.604 960.271 C 84.272 959.939, 84.036 960.529, 84.079 961.583 M 7.741 983.418 C 0.825 985.907, 1 985.330, 1 1005.622 L 1 1024 36.350 1024 L 71.700 1024 75.744 1021.071 C 83.462 1015.479, 85.247 1009.460, 80.508 1005.007 C 77.578 1002.255, 68.951 1001.124, 64.013 1002.846 L 60.905 1003.929 64.347 999.908 C 68.888 994.603, 69.470 991.380, 66.436 988.345 C 63.500 985.409, 58.826 985.285, 53.500 988 C 48.734 990.430, 49 990.426, 49 988.059 C 49 986.991, 48.630 985.889, 48.177 985.609 C 47.216 985.015, 36.558 991.212, 33.197 994.319 C 31.237 996.131, 30.756 996.228, 29.963 994.974 C 29.450 994.163, 29.024 993.262, 29.015 992.971 C 28.983 991.847, 21.458 984.745, 19.531 984.019 C 15.021 982.322, 11.312 982.132, 7.741 983.418" stroke="none" fill="#000000" fill-rule="evenodd"/>
	<path fill-opacity="0.009" d="M 5.814 805.799 C 7.291 807.338, 8.838 808.436, 9.250 808.240 C 9.662 808.043, 10 808.306, 10 808.824 C 10 809.343, 9.100 810.002, 8 810.290 C 6.610 810.653, 5.976 810.307, 5.921 809.156 C 5.856 807.801, 5.736 807.769, 5.260 808.982 C 4.629 810.592, 2.454 813, 1.632 813 C 1.351 813, 0.944 811.313, 0.728 809.250 C 0.513 807.188, 0.261 813.096, 0.168 822.381 L -0 839.262 3.750 838.642 C 5.813 838.301, 8.625 837.985, 10 837.941 C 12.306 837.866, 12.345 837.790, 10.500 836.971 C 8.981 836.296, 9.522 836.120, 12.750 836.237 C 15.088 836.322, 17 836.753, 17 837.196 C 17 837.638, 16.438 838.030, 15.750 838.067 C 15.063 838.104, 16.449 838.742, 18.831 839.485 C 21.213 840.229, 24.045 841.636, 25.124 842.612 C 26.900 844.219, 27.024 844.227, 26.436 842.694 C 26.079 841.762, 25.272 840.993, 24.643 840.985 C 24.001 840.976, 24.157 840.500, 25 839.898 C 26.224 839.023, 26.115 838.910, 24.402 839.280 C 23.248 839.529, 21.223 839.134, 19.902 838.402 L 17.500 837.071 20.583 837.035 C 22.279 837.016, 24.004 836.663, 24.417 836.250 C 24.829 835.837, 25.692 835.500, 26.333 835.500 C 26.975 835.500, 27.638 834.533, 27.806 833.352 C 28.208 830.532, 32 829.395, 32 832.094 C 32 833.212, 32.723 834.033, 33.750 834.079 C 34.795 834.126, 34.997 834.361, 34.250 834.662 C 33.563 834.940, 33 836.323, 33 837.736 L 33 840.306 34.938 838.072 C 36.018 836.826, 36.606 835.138, 36.268 834.255 C 35.865 833.207, 36.055 832.916, 36.830 833.395 C 37.895 834.053, 38.467 832.823, 38.094 830.676 C 38.015 830.222, 38.359 830.104, 38.859 830.413 C 39.359 830.722, 40.357 829.518, 41.077 827.737 C 41.797 825.957, 42.703 824.275, 43.090 824 C 44.695 822.859, 44.439 818.702, 42.697 817.620 C 41.255 816.725, 40.691 816.855, 39.885 818.271 C 39.331 819.245, 38.486 819.800, 38.008 819.505 C 37.529 819.209, 36.856 819.425, 36.510 819.984 C 36.165 820.543, 34.671 821.036, 33.191 821.079 C 31.711 821.122, 31.063 821.385, 31.750 821.662 C 34.085 822.605, 32.344 826.114, 29.226 826.750 C 27.295 827.144, 27.796 824.202, 29.750 823.672 C 30.712 823.411, 30.069 823.246, 28.319 823.306 C 26.570 823.366, 25.359 823.772, 25.628 824.207 C 25.898 824.643, 25.454 825, 24.642 825 C 23.831 825, 22.940 825.563, 22.662 826.250 C 22.361 826.997, 22.126 826.795, 22.079 825.750 C 22.036 824.788, 22.477 824, 23.059 824 C 23.641 824, 23.822 823.521, 23.460 822.935 C 23.023 822.229, 22.219 822.397, 21.072 823.435 C 18.655 825.622, 18 825.399, 18 822.390 C 18 818.239, 12.361 808.798, 8.060 805.750 C 3.119 802.247, 2.420 802.262, 5.814 805.799 M 37.500 815.027 C 36.102 815.680, 36.933 815.782, 40.259 815.366 C 43.558 814.953, 45.525 815.189, 46.672 816.135 C 48.086 817.303, 48.254 817.283, 47.835 816 C 47.260 814.240, 40.540 813.607, 37.500 815.027 M 16.079 821.583 C 16.127 822.748, 16.364 822.985, 16.683 822.188 C 16.972 821.466, 16.936 820.603, 16.604 820.271 C 16.272 819.939, 16.036 820.529, 16.079 821.583 M 43.752 825.215 C 42.791 827.482, 42.222 829.556, 42.489 829.822 C 43.111 830.444, 46.204 823.097, 45.802 821.953 C 45.636 821.480, 44.713 822.948, 43.752 825.215 M 36.463 839.250 C 34.878 841.654, 34.414 842.880, 35.396 842.073 C 37.044 840.718, 40.490 835, 39.659 835 C 39.443 835, 38.004 836.913, 36.463 839.250 M 50.399 877.587 C 44.430 880.739, 41.708 883.170, 37.757 888.878 L 34.727 893.257 33.412 890.128 C 32.688 888.408, 31.636 887, 31.074 887 C 29.406 887, 27.128 892.368, 26.133 898.640 C 24.936 906.190, 26.011 907.840, 30.189 904.865 C 33.175 902.739, 39.777 900.744, 41.106 901.566 C 42.508 902.432, 39.587 908, 37.731 908 C 36.724 908, 34.541 908.703, 32.879 909.563 C 30.086 911.007, 29.879 911.482, 30.150 915.813 C 30.434 920.346, 30.346 920.511, 27.472 920.838 C 24.462 921.181, 22 922.610, 22 924.013 C 22 925.492, 29.070 925.589, 32.270 924.154 C 34.046 923.357, 39.100 922.599, 43.500 922.470 C 47.900 922.342, 52.767 921.733, 54.315 921.118 C 55.863 920.503, 57.566 920, 58.098 920 C 60.330 920, 68.836 914.841, 73.228 910.824 C 79.131 905.425, 80.227 901.880, 76.514 900.188 C 72.879 898.532, 62.089 898.704, 57 900.500 C 54.662 901.325, 52.600 902, 52.419 902 C 52.237 902, 52.742 900.147, 53.541 897.883 C 54.853 894.164, 56.343 887.163, 57.717 878.250 C 58.345 874.184, 57.064 874.068, 50.399 877.587 M 62.828 922.979 C 57.726 924.519, 57.709 925.122, 62.672 928.480 C 65.328 930.276, 68.357 932.703, 69.405 933.873 C 71.942 936.706, 76.713 936.572, 80.393 933.563 L 83.285 931.197 81.116 927.687 C 77.954 922.572, 70.518 920.657, 62.828 922.979 M 1464.263 924.928 C 1458.912 927.407, 1454 934.686, 1454 940.137 C 1454 942.197, 1453.589 944.136, 1453.087 944.446 C 1451.871 945.198, 1450.683 952.356, 1450.796 958.250 C 1450.846 960.862, 1450.639 963, 1450.337 963 C 1450.035 963, 1448.934 961.914, 1447.890 960.587 C 1445.540 957.600, 1438.296 954, 1434.635 954 C 1426.826 954, 1422.437 960.896, 1426.529 966.738 C 1428.592 969.683, 1434.089 970.548, 1441.447 969.086 C 1448.795 967.625, 1450.187 968.071, 1452.336 972.579 C 1453.872 975.798, 1453.875 976.261, 1452.385 978.535 C 1450.389 981.581, 1449.905 981.592, 1447.140 978.649 C 1441.996 973.173, 1429.403 972.482, 1422.156 977.278 L 1418.192 979.901 1417.598 977.533 C 1416.775 974.256, 1406.943 963.657, 1405.793 964.807 C 1405.291 965.309, 1404.798 968.719, 1404.696 972.385 L 1404.511 979.051 1401.711 978.437 C 1398.140 977.652, 1390.221 979.546, 1387.065 981.940 C 1384.681 983.749, 1384.667 983.843, 1386.395 986.480 C 1387.366 987.962, 1388.007 989.327, 1387.819 989.514 C 1387.632 989.701, 1385.008 989.002, 1381.989 987.960 C 1378.970 986.918, 1375.276 986.051, 1373.780 986.033 L 1371.060 986 1373.504 982.399 C 1377.881 975.950, 1377.965 969.122, 1373.695 966.837 C 1369.822 964.764, 1360.905 965.268, 1356.608 967.804 C 1354.485 969.056, 1352.671 969.950, 1352.576 969.791 C 1352.482 969.631, 1351.884 968.286, 1351.248 966.803 C 1350.612 965.319, 1348.938 963.351, 1347.530 962.427 C 1345.275 960.950, 1344.408 960.906, 1340.304 962.055 C 1333.710 963.901, 1328.522 969.376, 1326.417 976.711 C 1325.503 979.895, 1324.611 982.662, 1324.435 982.859 C 1324.259 983.057, 1322.852 982.332, 1321.308 981.248 C 1316.810 978.091, 1311.266 976.740, 1304.745 977.212 C 1297.695 977.722, 1295 980.059, 1295 985.660 C 1295 990.188, 1297.140 994.145, 1301.555 997.785 L 1305.152 1000.750 1300.819 1001.400 C 1295.022 1002.269, 1287.234 1005.978, 1282.513 1010.118 C 1278.051 1014.031, 1273 1020.687, 1273 1022.654 C 1273 1023.786, 1294.511 1023.966, 1404.750 1023.754 L 1536.500 1023.500 1536.189 992.523 C 1536.018 975.485, 1535.644 961.310, 1535.356 961.023 C 1535.069 960.735, 1531.497 960.500, 1527.418 960.500 C 1520.357 960.500, 1520.003 960.391, 1520.001 958.210 C 1519.999 954.278, 1516.328 948.378, 1513.034 947.014 C 1503.465 943.050, 1491.354 952.227, 1493.465 961.842 C 1493.988 964.220, 1493.456 965.308, 1490.165 968.600 L 1486.242 972.523 1483.589 970.542 C 1481.715 969.143, 1478.891 968.446, 1473.968 968.168 C 1470.136 967.951, 1467 967.557, 1467 967.291 C 1467 967.025, 1468.821 964.738, 1471.048 962.209 C 1475.821 956.785, 1476.062 953.260, 1471.796 951.225 C 1466.506 948.701, 1458.877 954.363, 1457.363 961.937 C 1456.226 967.621, 1455 966.206, 1455 959.208 C 1455 949.463, 1456.220 946.550, 1460.886 945.152 C 1469.006 942.720, 1476.988 934.653, 1476.996 928.872 C 1477.004 923.708, 1470.945 921.832, 1464.263 924.928 M 4.077 985.589 L 1 988.178 1 1006.089 L 1 1024 36.070 1024 L 71.140 1024 75.569 1020.953 C 87.051 1013.052, 84.541 1002.500, 71.178 1002.500 C 68.055 1002.500, 64.375 1002.891, 63 1003.369 L 60.500 1004.238 63.128 1001.369 C 68.197 995.835, 69.476 990.470, 66.346 987.872 C 64.070 985.983, 57.201 986.191, 53.096 988.273 C 48.882 990.411, 49 990.419, 49 988 C 49 986.900, 48.528 986, 47.950 986 C 46.314 986, 40.975 988.909, 35.599 992.730 C 31.254 995.818, 30.593 996.024, 29.766 994.546 C 27.937 991.278, 22.658 985.874, 19.901 984.449 C 18.360 983.652, 14.861 983, 12.126 983 C 8.235 983, 6.484 983.563, 4.077 985.589" stroke="none" fill="#000000" fill-rule="evenodd"/>
	<path fill-opacity="0.026" d="M 3 803.393 C 3 803.609, 3.698 804.054, 4.552 804.382 C 5.442 804.723, 5.843 804.555, 5.493 803.989 C 4.906 803.038, 3 802.583, 3 803.393 M 7 805.378 C 7 805.585, 7.787 806.373, 8.750 807.128 C 10.336 808.371, 10.371 808.336, 9.128 806.750 C 7.821 805.084, 7 804.555, 7 805.378 M 13 812 C 13.589 813.100, 14.295 814, 14.570 814 C 14.845 814, 14.589 813.100, 14 812 C 13.411 810.900, 12.705 810, 12.430 810 C 12.155 810, 12.411 810.900, 13 812 M 17.079 820.583 C 17.127 821.748, 17.364 821.985, 17.683 821.188 C 17.972 820.466, 17.936 819.603, 17.604 819.271 C 17.272 818.939, 17.036 819.529, 17.079 820.583 M 56.943 877.500 C 56.768 879.932, 56.646 880.074, 56.294 878.250 C 55.837 875.874, 55.198 875.603, 52.498 876.639 C 51.158 877.153, 51.093 877.457, 52.166 878.193 C 53.143 878.862, 52.964 879.016, 51.500 878.767 C 50.400 878.580, 48.904 879.119, 48.176 879.964 C 47.180 881.119, 47.039 881.141, 47.606 880.053 C 48.047 879.209, 47.032 879.553, 45.169 880.880 C 43.413 882.130, 42.276 883.638, 42.643 884.231 C 43.009 884.824, 42.856 885.029, 42.301 884.686 C 41.747 884.344, 39.787 886.161, 37.947 888.724 L 34.599 893.385 33.297 890.192 C 32.580 888.437, 31.523 887, 30.946 887 C 29.472 887, 27.213 892.815, 26.215 899.181 C 25.129 906.108, 26.262 907.440, 30.687 904.438 C 33.709 902.387, 40.696 900.362, 41.607 901.273 C 41.828 901.495, 41.550 902.986, 40.989 904.588 C 40.193 906.860, 38.929 907.829, 35.234 909 C 31.004 910.340, 30.467 910.844, 30.188 913.728 C 30.017 915.504, 30.309 917.730, 30.838 918.676 C 31.385 919.652, 31.444 921.333, 30.975 922.566 C 30.152 924.731, 30.165 924.733, 35.198 923.257 C 38.210 922.374, 42.616 921.949, 46.123 922.203 C 49.355 922.436, 52 922.282, 52 921.859 C 52 921.436, 53.688 920.791, 55.750 920.425 C 60.847 919.519, 67.837 915.649, 73.401 910.651 C 78.871 905.737, 79.745 902.269, 76 900.326 C 73.332 898.942, 61.554 898.470, 62.364 899.779 C 62.629 900.208, 61.305 901.041, 59.423 901.630 C 57.455 902.246, 56 902.311, 56 901.783 C 56 901.278, 55.117 901.146, 54.037 901.488 C 52.145 902.089, 52.125 901.940, 53.489 897.306 C 55.708 889.766, 58.163 876.961, 57.636 875.671 C 57.373 875.027, 57.061 875.850, 56.943 877.500 M 25.813 921.683 C 26.534 921.972, 27.397 921.936, 27.729 921.604 C 28.061 921.272, 27.471 921.036, 26.417 921.079 C 25.252 921.127, 25.015 921.364, 25.813 921.683 M 63.323 922.696 C 62.125 922.929, 60.646 923.721, 60.036 924.456 C 59.175 925.495, 59.674 926.253, 62.280 927.864 C 64.123 929.003, 66.450 930.839, 67.449 931.944 C 68.449 933.049, 69.668 933.705, 70.158 933.402 C 70.649 933.099, 70.926 933.447, 70.775 934.176 C 70.259 936.664, 76.769 936.372, 79.863 933.768 C 82.578 931.484, 82.621 931.301, 81.171 928.239 C 78.748 923.122, 71.961 921.015, 63.323 922.696 M 1466.914 923.936 C 1460.195 926.024, 1454 933.594, 1454 939.716 C 1454 941.388, 1453.325 944.371, 1452.500 946.346 C 1451.675 948.320, 1451 952.875, 1451 956.468 C 1451 960.061, 1450.760 963, 1450.467 963 C 1450.173 963, 1448.403 961.470, 1446.533 959.599 C 1442.452 955.519, 1437.114 953.568, 1432.431 954.447 C 1422.985 956.219, 1422.436 967.866, 1431.716 969.606 C 1433.727 969.984, 1438.106 969.749, 1441.447 969.086 C 1448.785 967.627, 1450.188 968.073, 1452.320 972.545 C 1453.870 975.795, 1453.860 976.182, 1452.151 978.993 L 1450.332 981.983 1448.015 979.516 C 1442.213 973.340, 1429.415 972.251, 1422.282 977.326 L 1418.538 979.990 1416.662 976.245 C 1415.630 974.185, 1412.931 970.578, 1410.664 968.228 C 1405.861 963.252, 1405.187 963.837, 1405.070 973.083 L 1405 978.667 1399.128 978.667 C 1389.293 978.667, 1383.492 983.506, 1387.662 988.231 C 1389.474 990.285, 1389.465 990.303, 1387 989.568 C 1385.625 989.158, 1381.530 988.073, 1377.900 987.157 L 1371.300 985.491 1373.697 981.877 C 1375.124 979.728, 1376.177 976.546, 1376.298 974.024 C 1376.467 970.484, 1376.063 969.451, 1373.857 967.776 C 1370.264 965.048, 1362.423 965.087, 1356.816 967.861 C 1352.585 969.954, 1351.057 969.549, 1351.015 966.323 C 1351.007 965.675, 1349.792 964.195, 1348.316 963.034 C 1341.019 957.294, 1326.707 968.141, 1325.795 980.103 C 1325.674 981.696, 1325.277 983, 1324.913 983 C 1324.550 983, 1322.142 981.821, 1319.564 980.380 C 1313.464 976.971, 1303.782 976.027, 1299.201 978.396 C 1293.103 981.550, 1293.673 989.725, 1300.464 996.517 L 1304.805 1000.857 1300.652 1001.518 C 1298.369 1001.881, 1294.250 1003.200, 1291.500 1004.449 C 1285.904 1006.991, 1276.687 1014.684, 1277.555 1016.089 C 1277.865 1016.590, 1277.691 1017, 1277.170 1017 C 1276.649 1017, 1276.285 1017.777, 1276.361 1018.726 C 1276.438 1019.675, 1275.975 1020.463, 1275.333 1020.476 C 1274.692 1020.489, 1273.792 1020.910, 1273.333 1021.410 C 1272.849 1021.939, 1273.024 1022.019, 1273.750 1021.601 C 1274.524 1021.156, 1275 1021.478, 1275 1022.445 C 1275 1023.855, 1287.753 1023.983, 1405.750 1023.754 L 1536.500 1023.500 1536.189 992.523 C 1536.018 975.485, 1535.643 961.310, 1535.356 961.023 C 1535.069 960.735, 1531.535 960.500, 1527.504 960.500 L 1520.176 960.500 1519.555 956.617 C 1518.670 951.083, 1513.406 946, 1508.560 946 C 1504.133 946, 1497.841 949.057, 1495.813 952.192 C 1493.908 955.140, 1493.019 959.955, 1493.929 962.408 C 1494.458 963.835, 1493.611 965.348, 1490.568 968.408 L 1486.500 972.500 1482.081 970.250 C 1478.963 968.663, 1475.906 968, 1471.703 968 L 1465.745 968 1469.839 963.559 C 1476.620 956.202, 1476.389 951, 1469.282 951 C 1463.290 951, 1460.136 954.317, 1456.445 964.500 C 1455.830 966.195, 1455.594 965.966, 1454.898 963 C 1454.048 959.380, 1454.462 954.817, 1456.137 949.326 C 1456.918 946.764, 1457.988 945.851, 1461.690 944.590 C 1470.150 941.707, 1476.988 934.685, 1476.996 928.872 C 1477.002 924.620, 1472.229 922.283, 1466.914 923.936 M 4.898 985.289 L 1.500 987.577 1.227 1005.789 L 0.955 1024 36.047 1024 L 71.140 1024 75.434 1021.045 C 83.052 1015.804, 84.913 1007.955, 79.396 1004.340 C 76.634 1002.530, 68.401 1001.969, 63.740 1003.272 L 60.980 1004.043 64.490 999.445 C 68.110 994.703, 69.046 990.069, 66.750 988.260 C 63.397 985.619, 59.067 985.947, 50.750 989.472 C 49.402 990.043, 49 989.730, 49 988.107 C 49 986.948, 48.528 986, 47.950 986 C 46.314 986, 40.975 988.909, 35.599 992.730 C 31.254 995.818, 30.593 996.024, 29.766 994.546 C 27.686 990.829, 22.339 985.622, 19.298 984.351 C 14.394 982.302, 8.790 982.667, 4.898 985.289 M 1280.924 1012.750 L 1278.500 1015.500 1281.250 1013.076 C 1283.820 1010.810, 1284.459 1010, 1283.674 1010 C 1283.495 1010, 1282.258 1011.237, 1280.924 1012.750" stroke="none" fill="#000000" fill-rule="evenodd"/>
	<path fill-opacity="0.008" d="M 55.675 882.675 C 54.839 885.686, 53.775 894.538, 54.314 894 C 55.021 893.295, 57.081 881.748, 56.589 881.255 C 56.365 881.032, 55.954 881.671, 55.675 882.675 M 40.872 884.750 C 39.629 886.336, 39.664 886.371, 41.250 885.128 C 42.212 884.373, 43 883.585, 43 883.378 C 43 882.555, 42.179 883.084, 40.872 884.750 M 51.584 884.641 C 51.057 886.014, 51.204 886.076, 52.477 885.019 C 54.212 883.579, 54.393 883, 53.107 883 C 52.616 883, 51.931 883.739, 51.584 884.641 M 49.750 887.662 C 50.438 887.940, 51.563 887.940, 52.250 887.662 C 52.938 887.385, 52.375 887.158, 51 887.158 C 49.625 887.158, 49.063 887.385, 49.750 887.662 M 36.818 890.500 C 35.411 893.587, 34.619 893.642, 33.209 890.750 C 32.252 888.789, 32.189 888.937, 32.712 891.905 C 33.127 894.263, 32.972 895.101, 32.206 894.627 C 31.595 894.249, 30.561 894.952, 29.893 896.200 C 28.726 898.381, 28.662 898.390, 27.963 896.478 C 27.372 894.863, 27.105 895.187, 26.509 898.243 C 26.108 900.302, 26.076 903.165, 26.437 904.606 C 27.072 907.133, 27.162 907.163, 29.045 905.459 C 30.118 904.489, 33.359 902.878, 36.248 901.880 C 39.136 900.882, 40.999 900.051, 40.388 900.033 C 39.776 900.015, 39.399 898.875, 39.549 897.500 C 39.700 896.125, 39.462 895, 39.019 895 C 37.579 895, 36.981 891.904, 38.039 889.928 C 38.606 888.867, 38.820 888, 38.514 888 C 38.208 888, 37.445 889.125, 36.818 890.500 M 27 902 C 27 902.550, 27.477 903, 28.059 903 C 28.641 903, 28.840 902.550, 28.500 902 C 28.160 901.450, 27.684 901, 27.441 901 C 27.198 901, 27 901.450, 27 902 M 77 901.882 C 77 902.432, 77.450 903.160, 78 903.500 C 78.550 903.840, 79 903.668, 79 903.118 C 79 902.568, 78.550 901.840, 78 901.500 C 77.450 901.160, 77 901.332, 77 901.882 M 75 904.976 C 75 905.604, 75.412 905.864, 75.915 905.553 C 76.418 905.242, 77.059 905.452, 77.340 906.019 C 77.620 906.586, 77.743 906.504, 77.612 905.837 C 77.302 904.252, 75 903.492, 75 904.976 M 73.690 908.436 C 72.695 909.191, 72.267 910.047, 72.740 910.339 C 73.213 910.632, 74.144 910, 74.808 908.935 C 76.228 906.662, 76.103 906.606, 73.690 908.436 M 34.530 910.049 C 34.851 910.568, 34.344 910.685, 33.378 910.315 C 32.060 909.809, 31.803 910.045, 32.290 911.314 C 32.674 912.313, 32.467 912.881, 31.773 912.738 C 31.138 912.607, 30.463 913.200, 30.274 914.056 C 29.898 915.749, 32.332 918.937, 35.500 920.899 C 37.447 922.105, 37.443 922.126, 35.315 921.679 C 33.994 921.402, 32.910 921.791, 32.576 922.662 C 32.237 923.546, 32.449 923.840, 33.125 923.423 C 33.731 923.048, 37.663 922.413, 41.863 922.011 C 49.435 921.286, 49.451 921.279, 43.711 921.140 C 38.821 921.022, 38.122 920.784, 39.211 919.611 C 39.920 918.847, 40.728 918.583, 41.006 919.025 C 41.285 919.468, 42.364 919.207, 43.405 918.446 C 44.969 917.302, 45.077 916.798, 44.026 915.531 C 43.090 914.404, 43.067 914, 43.937 914 C 44.586 914, 44.835 913.543, 44.490 912.984 C 44.144 912.425, 43.443 912.226, 42.931 912.543 C 42.419 912.859, 42 912.615, 42 912 C 42 911.385, 41.550 911.160, 41 911.500 C 40.450 911.840, 39.993 911.304, 39.985 910.309 C 39.972 908.775, 39.822 908.728, 39 910 C 38.467 910.825, 38.024 911.033, 38.015 910.463 C 38.007 909.892, 37.090 909.357, 35.978 909.273 C 34.866 909.190, 34.215 909.539, 34.530 910.049 M 55.750 919.662 C 56.438 919.940, 57.563 919.940, 58.250 919.662 C 58.938 919.385, 58.375 919.158, 57 919.158 C 55.625 919.158, 55.063 919.385, 55.750 919.662 M 67.250 922.689 C 68.213 922.941, 69.787 922.941, 70.750 922.689 C 71.713 922.438, 70.925 922.232, 69 922.232 C 67.075 922.232, 66.287 922.438, 67.250 922.689 M 74 923.383 C 74 923.594, 74.901 924.002, 76.001 924.290 C 77.102 924.578, 77.751 924.405, 77.442 923.907 C 76.904 923.036, 74 922.594, 74 923.383 M 1463.527 925.563 C 1460.037 927.382, 1458.746 928.589, 1461.250 927.691 C 1462.213 927.345, 1463 927.499, 1463 928.031 C 1463 928.564, 1462.598 929, 1462.107 929 C 1461.616 929, 1460.921 929.762, 1460.564 930.694 C 1459.953 932.286, 1460.027 932.286, 1461.786 930.694 C 1464.203 928.506, 1465 928.555, 1465 930.892 C 1465 933.012, 1468.971 934.461, 1472.079 933.475 C 1473.524 933.016, 1473.842 933.249, 1473.387 934.435 C 1473.056 935.296, 1472.384 936, 1471.893 936 C 1471.402 936, 1471.001 936.788, 1471.001 937.750 C 1471.002 939.104, 1471.575 938.834, 1473.529 936.562 C 1476.707 932.867, 1477.567 929.539, 1476.148 926.426 C 1475.228 924.407, 1474.326 924.001, 1470.771 924.006 C 1468.422 924.010, 1465.162 924.710, 1463.527 925.563 M 65 929.378 C 65 929.585, 65.787 930.373, 66.750 931.128 C 68.336 932.371, 68.371 932.336, 67.128 930.750 C 65.821 929.084, 65 928.555, 65 929.378 M 1454.607 936.582 C 1454.273 937.452, 1454 939.197, 1454 940.460 C 1454 941.723, 1453.317 944.391, 1452.482 946.389 C 1450.249 951.732, 1450.619 967.946, 1453.106 973.746 C 1455.532 979.408, 1455.489 980.476, 1452.780 981.685 C 1450.910 982.519, 1450.080 982.166, 1447.518 979.451 C 1444.313 976.053, 1438.866 974.015, 1432.962 974.006 C 1428.852 973.999, 1420.389 977.958, 1420.738 979.724 C 1421.116 981.637, 1418.371 980.105, 1417.096 977.692 C 1416.459 976.486, 1416.163 976.288, 1416.438 977.250 C 1416.751 978.349, 1416.391 979, 1415.469 979 C 1414.661 979, 1414 979.505, 1414 980.122 C 1414 980.933, 1413.610 980.921, 1412.597 980.081 C 1411.520 979.187, 1411.086 979.216, 1410.728 980.208 C 1410.362 981.222, 1409.830 981.246, 1408.259 980.322 C 1406.772 979.447, 1405.966 979.434, 1405.128 980.272 C 1404.291 981.109, 1404 981.091, 1404 980.200 C 1404 979.389, 1402.134 979.046, 1398.250 979.142 C 1392.717 979.278, 1392.651 979.311, 1396.500 980 C 1398.700 980.394, 1399.781 980.780, 1398.903 980.858 C 1395.689 981.144, 1393.109 984.529, 1392.857 988.790 C 1392.637 992.521, 1391.533 994.064, 1388.833 994.414 C 1386.731 994.686, 1387.089 996, 1389.265 996 C 1391.503 996, 1391.824 996.382, 1391.575 998.750 C 1391.373 1000.685, 1390.648 1001.595, 1389.129 1001.821 C 1387.942 1001.998, 1387.233 1002.568, 1387.554 1003.088 C 1387.875 1003.607, 1388.525 1003.794, 1388.997 1003.502 C 1390.250 1002.727, 1391.375 1007.025, 1390.221 1008.179 C 1389.684 1008.716, 1387.951 1009.009, 1386.372 1008.828 C 1383.451 1008.494, 1382.569 1006.587, 1384.275 1004.294 C 1384.768 1003.630, 1384.906 1002.656, 1384.580 1002.129 C 1384.254 1001.602, 1384.553 1000.943, 1385.244 1000.664 C 1386.242 1000.262, 1386.243 1000.142, 1385.250 1000.079 C 1383.709 999.982, 1383.568 996, 1385.106 996 C 1385.714 996, 1384.766 994.650, 1383 993 C 1380.052 990.246, 1379.966 990, 1381.953 990 C 1384.990 990, 1383.589 988.272, 1379.989 987.577 C 1370.170 985.682, 1370.865 986.030, 1372.437 983.787 C 1373.694 981.991, 1373.685 981.542, 1372.360 980.217 C 1371.527 979.384, 1371.063 977.869, 1371.329 976.851 C 1371.622 975.731, 1371.285 975, 1370.476 975 C 1369.741 975, 1368.942 974.212, 1368.702 973.250 C 1368.461 972.288, 1368.345 972.691, 1368.444 974.146 C 1368.567 975.966, 1368.213 976.635, 1367.312 976.289 C 1366.590 976.013, 1365.971 975.047, 1365.937 974.143 C 1365.893 973.012, 1365.592 973.200, 1364.969 974.750 C 1364.471 975.987, 1363.798 977, 1363.473 977 C 1363.148 977, 1363.160 976.550, 1363.500 976 C 1363.862 975.414, 1362.805 975, 1360.942 975 C 1358.094 975, 1357.816 974.742, 1358.245 972.500 C 1358.573 970.782, 1358.278 970, 1357.302 970 C 1356.521 970, 1356.157 969.555, 1356.493 969.011 C 1356.843 968.445, 1356.443 968.276, 1355.558 968.616 C 1354.707 968.943, 1354.296 969.669, 1354.643 970.231 C 1355.060 970.906, 1354.708 970.936, 1353.605 970.319 C 1352.687 969.805, 1351.163 967.836, 1350.218 965.942 C 1348.983 963.468, 1347.726 962.411, 1345.750 962.184 C 1342.814 961.846, 1342.032 963.632, 1344.177 965.777 C 1345.079 966.679, 1344.845 966.855, 1343.177 966.534 C 1341.070 966.128, 1339.929 968.422, 1341.868 969.167 C 1342.345 969.350, 1343.072 970.581, 1343.483 971.901 C 1344.093 973.861, 1343.934 974.189, 1342.615 973.683 C 1341.727 973.342, 1341 973.499, 1341 974.031 C 1341 974.564, 1340.073 975, 1338.941 975 C 1337.809 975, 1337.160 974.550, 1337.500 974 C 1337.840 973.450, 1337.668 973, 1337.118 973 C 1336.568 973, 1335.840 973.450, 1335.500 974 C 1335.160 974.550, 1333.649 975, 1332.141 975 C 1330.633 975, 1328.809 975.563, 1328.086 976.250 C 1325.846 978.380, 1330.025 970.731, 1332.864 967.504 L 1335.500 964.507 1332.653 967.004 C 1329.033 970.177, 1326 976.057, 1326 979.901 C 1326 983.021, 1324.593 984.768, 1323.501 983.002 C 1322.179 980.863, 1314.813 977.950, 1309.259 977.369 C 1301.033 976.510, 1296.357 978.579, 1295.436 983.488 C 1294.550 988.212, 1297.235 994.315, 1301.697 997.718 C 1303.513 999.104, 1304.993 1000.971, 1304.985 1001.869 C 1304.973 1003.166, 1304.793 1003.222, 1304.109 1002.143 C 1303.391 1001.009, 1302.353 1001.046, 1297.790 1002.373 C 1293.123 1003.729, 1292.360 1004.289, 1292.529 1006.230 C 1292.638 1007.478, 1292.226 1009.149, 1291.614 1009.942 C 1290.773 1011.030, 1290.797 1011.206, 1291.707 1010.659 C 1293.141 1009.799, 1295.910 1014.644, 1296.236 1018.586 C 1296.357 1020.044, 1297.108 1021.488, 1297.905 1021.794 C 1299.039 1022.229, 1298.935 1022.514, 1297.427 1023.105 C 1296.367 1023.520, 1301.125 1023.805, 1308 1023.738 L 1320.500 1023.617 1311 1023.056 C 1302.024 1022.525, 1302.558 1022.446, 1320.661 1021.623 L 1339.823 1020.752 1339.459 1017.876 C 1339.259 1016.294, 1339.549 1015, 1340.104 1015 C 1341.244 1015, 1347 1008.972, 1347 1007.777 C 1347 1006.708, 1352.360 1006.799, 1355.185 1007.915 C 1356.458 1008.418, 1358.400 1010.217, 1359.500 1011.912 C 1361.271 1014.641, 1362.045 1014.995, 1366.250 1014.997 C 1368.862 1014.999, 1371 1015.450, 1371 1016 C 1371 1016.550, 1370.213 1017.037, 1369.250 1017.081 C 1368.125 1017.133, 1368.569 1017.633, 1370.492 1018.480 L 1373.483 1019.798 1370.992 1020.263 C 1369.279 1020.582, 1369.751 1020.765, 1372.500 1020.849 C 1375.446 1020.938, 1376.105 1020.710, 1375 1019.985 C 1373.667 1019.109, 1373.667 1018.891, 1375 1018.015 C 1376.218 1017.216, 1376.077 1017.028, 1374.250 1017.015 C 1373.013 1017.007, 1372 1016.550, 1372 1016 C 1372 1015.404, 1375.740 1015.006, 1381.250 1015.015 C 1387.592 1015.026, 1390.028 1015.335, 1389 1016 C 1388.175 1016.533, 1386.600 1017.013, 1385.500 1017.066 C 1383.918 1017.142, 1384.127 1017.449, 1386.500 1018.536 C 1388.838 1019.607, 1389.058 1019.923, 1387.500 1019.970 C 1383.250 1020.099, 1388.473 1021.969, 1393.125 1021.985 C 1399.627 1022.006, 1404.517 1020.943, 1402.831 1019.874 C 1402.044 1019.375, 1405.382 1018.951, 1411 1018.836 C 1429.072 1018.465, 1441.171 1017.631, 1442.765 1016.645 C 1446.846 1014.123, 1462 1014.466, 1462 1017.081 C 1462 1017.586, 1462.653 1018, 1463.450 1018 C 1464.248 1018, 1465.297 1018.708, 1465.781 1019.572 C 1466.265 1020.437, 1468.649 1021.445, 1471.080 1021.813 L 1475.500 1022.481 1470.500 1023.083 C 1467.750 1023.415, 1474.275 1023.689, 1485 1023.693 C 1495.725 1023.697, 1503.255 1023.512, 1501.733 1023.282 C 1497.109 1022.583, 1499.763 1021, 1505.559 1021 C 1510.990 1021, 1513.010 1022.461, 1508.750 1023.308 C 1507.513 1023.555, 1513.250 1023.698, 1521.500 1023.628 L 1536.500 1023.500 1536.189 992.523 C 1536.018 975.485, 1535.785 961.452, 1535.671 961.338 C 1535.557 961.224, 1532.997 960.884, 1529.982 960.583 C 1526.168 960.203, 1525.261 960.305, 1527 960.918 C 1529.598 961.835, 1529.307 962.028, 1524.827 962.361 C 1523.357 962.470, 1522.371 962.208, 1522.636 961.780 C 1522.901 961.351, 1522.456 961, 1521.647 961 C 1520.704 961, 1519.927 959.528, 1519.483 956.898 C 1518.462 950.857, 1514.554 946.971, 1509 946.475 C 1505.536 946.165, 1505.191 946.246, 1507.500 946.828 C 1510.446 947.569, 1510.461 947.605, 1508.316 948.791 C 1507.114 949.456, 1505.427 950, 1504.566 950 C 1503.705 950, 1502.993 950.563, 1502.985 951.250 C 1502.974 952.083, 1502.646 952, 1502 951 C 1501.202 949.765, 1501.028 949.750, 1501.015 950.917 C 1501.007 951.696, 1500.708 952.042, 1500.352 951.685 C 1499.995 951.328, 1498.870 951.997, 1497.852 953.171 C 1496.833 954.345, 1496 954.877, 1496 954.353 C 1496 953.829, 1496.540 952.860, 1497.200 952.200 C 1497.983 951.417, 1498.025 951, 1497.321 951 C 1495.609 951, 1493.808 956.455, 1494.115 960.710 C 1494.362 964.125, 1493.878 965.122, 1490.181 968.819 L 1485.966 973.034 1482.940 970.797 C 1480.667 969.117, 1478.163 968.462, 1472.875 968.163 L 1465.835 967.765 1468.767 964.633 C 1472.776 960.348, 1475.016 956.851, 1474.919 955.027 C 1474.874 954.187, 1474.195 954.850, 1473.409 956.500 C 1472.388 958.644, 1472.016 958.929, 1472.105 957.500 C 1472.322 954.036, 1472.029 952.864, 1471.092 953.443 C 1470.593 953.751, 1469.131 953.551, 1467.842 952.997 C 1465.843 952.138, 1466.110 952.031, 1469.666 952.264 C 1471.957 952.414, 1473.618 952.191, 1473.357 951.768 C 1472.519 950.412, 1466.898 950.947, 1463.999 952.660 C 1460.838 954.527, 1457 960.683, 1457 963.886 C 1457 967.357, 1455.143 966.279, 1454.412 962.384 C 1453.704 958.608, 1455.487 948.409, 1457.234 946.250 C 1457.949 945.366, 1457.843 944.996, 1456.872 944.985 C 1455.748 944.972, 1455.739 944.818, 1456.824 944.130 C 1457.891 943.453, 1457.823 942.966, 1456.473 941.616 C 1455.361 940.504, 1455.007 939.110, 1455.418 937.470 C 1456.108 934.723, 1455.553 934.116, 1454.607 936.582 M 1431.270 954.703 C 1428.591 955.220, 1425 959.515, 1425 962.201 C 1425 969.433, 1434.874 971.914, 1445.787 967.424 C 1447.595 966.680, 1448.825 966.474, 1448.521 966.966 C 1448.216 967.459, 1448.373 968.113, 1448.869 968.419 C 1449.365 968.726, 1449.977 967.900, 1450.229 966.585 C 1450.752 963.845, 1445.608 957.506, 1443.778 958.637 C 1443.122 959.043, 1442.979 958.843, 1443.417 958.134 C 1443.880 957.385, 1442.859 956.421, 1440.604 955.479 C 1437.085 954.008, 1435.534 953.880, 1431.270 954.703 M 1429.500 957 C 1429.840 957.550, 1430.316 958, 1430.559 958 C 1430.802 958, 1431 957.550, 1431 957 C 1431 956.450, 1430.523 956, 1429.941 956 C 1429.359 956, 1429.160 956.450, 1429.500 957 M 1437.587 964.860 C 1437.263 965.384, 1436.098 965.577, 1434.999 965.289 C 1433.882 964.997, 1433 965.259, 1433 965.883 C 1433 966.498, 1433.675 967, 1434.500 967 C 1435.325 967, 1436 967.390, 1436 967.866 C 1436 968.342, 1437.818 968.399, 1440.040 967.993 C 1446.330 966.843, 1446.827 965.271, 1441.182 964.381 C 1439.528 964.121, 1437.910 964.336, 1437.587 964.860 M 1429.638 966.500 C 1429.955 967.325, 1430.343 968, 1430.500 968 C 1430.657 968, 1431.045 967.325, 1431.362 966.500 C 1431.709 965.595, 1431.367 965, 1430.500 965 C 1429.633 965, 1429.291 965.595, 1429.638 966.500 M 1492 968.941 C 1492 969.523, 1491.365 970, 1490.588 970 C 1489.812 970, 1489.274 970.662, 1489.393 971.471 C 1489.712 973.645, 1491 974.603, 1491 972.667 C 1491 971.750, 1491.675 971, 1492.500 971 C 1494.198 971, 1494.511 969.434, 1493 968.500 C 1492.450 968.160, 1492 968.359, 1492 968.941 M 1375.086 969.500 C 1375.190 971.394, 1376.856 974.584, 1376.914 973 C 1376.945 972.175, 1376.533 970.825, 1376 970 C 1375.467 969.175, 1375.055 968.950, 1375.086 969.500 M 1405.079 970.583 C 1405.127 971.748, 1405.364 971.985, 1405.683 971.188 C 1405.972 970.466, 1405.936 969.603, 1405.604 969.271 C 1405.272 968.939, 1405.036 969.529, 1405.079 970.583 M 1375.079 975.668 C 1375.036 976.311, 1374.741 977.661, 1374.424 978.668 C 1373.877 980.409, 1373.906 980.412, 1374.995 978.712 C 1375.626 977.729, 1375.920 976.379, 1375.650 975.712 C 1375.295 974.837, 1375.136 974.825, 1375.079 975.668 M 1431.143 975.890 C 1430.186 976.497, 1430.554 976.750, 1432.393 976.750 C 1433.827 976.750, 1435 976.356, 1435 975.875 C 1435 974.763, 1432.909 974.771, 1431.143 975.890 M 1439.703 978.469 C 1440.691 979.826, 1441.864 980.951, 1442.309 980.969 C 1442.754 980.986, 1442.839 981.451, 1442.498 982.003 C 1442.153 982.562, 1442.681 982.881, 1443.689 982.724 C 1446.357 982.309, 1448.115 980.995, 1447.447 979.915 C 1447.125 979.394, 1446.443 979.226, 1445.931 979.543 C 1445.419 979.859, 1445 979.714, 1445 979.220 C 1445 978.289, 1440.667 976, 1438.906 976 C 1438.356 976, 1438.715 977.111, 1439.703 978.469 M 1455.638 977.500 C 1455.955 978.325, 1456.391 979, 1456.607 979 C 1456.823 979, 1457 978.325, 1457 977.500 C 1457 976.675, 1456.564 976, 1456.031 976 C 1455.499 976, 1455.322 976.675, 1455.638 977.500 M 1423 978 C 1422.099 978.582, 1421.975 978.975, 1422.691 978.985 C 1423.346 978.993, 1424.160 978.550, 1424.500 978 C 1425.267 976.758, 1424.921 976.758, 1423 978 M 7.021 984.062 C 1.056 986.572, 1 986.778, 1 1006.155 L 1 1024 36.267 1024 L 71.534 1024 76.690 1019.490 C 82.593 1014.326, 84.101 1010.329, 81.591 1006.499 C 78.915 1002.415, 71.412 1001.319, 62.500 1003.712 C 60.562 1004.232, 60.567 1004.174, 62.633 1001.874 C 65.197 999.021, 68 993.665, 68 991.621 C 68 987.284, 58.563 985.320, 53 988.500 C 49.629 990.427, 49 990.348, 49 988 C 49 986.900, 48.518 986, 47.928 986 C 46.483 986, 38.327 990.729, 33.970 994.093 L 30.440 996.819 28.219 992.960 C 23.695 985.098, 14.113 981.076, 7.021 984.062 M 1387 987.378 C 1387 987.585, 1387.787 988.373, 1388.750 989.128 C 1390.336 990.371, 1390.371 990.336, 1389.128 988.750 C 1387.821 987.084, 1387 986.555, 1387 987.378 M 1333.750 1023.706 C 1334.987 1023.944, 1337.013 1023.944, 1338.250 1023.706 C 1339.487 1023.467, 1338.475 1023.272, 1336 1023.272 C 1333.525 1023.272, 1332.513 1023.467, 1333.750 1023.706 M 1372.269 1023.693 C 1373.242 1023.947, 1374.592 1023.930, 1375.269 1023.656 C 1375.946 1023.382, 1375.150 1023.175, 1373.500 1023.195 C 1371.850 1023.215, 1371.296 1023.439, 1372.269 1023.693 M 1388.776 1023.733 C 1391.128 1023.945, 1394.728 1023.942, 1396.776 1023.727 C 1398.824 1023.512, 1396.900 1023.339, 1392.500 1023.343 C 1388.100 1023.346, 1386.424 1023.522, 1388.776 1023.733" stroke="none" fill="#000000" fill-rule="evenodd"/>
	<path fill-opacity="0.027" d="M 55.079 886.583 C 55.127 887.748, 55.364 887.985, 55.683 887.188 C 55.972 886.466, 55.936 885.603, 55.604 885.271 C 55.272 884.939, 55.036 885.529, 55.079 886.583 M 77.564 902.293 C 77.940 903.279, 78.499 903.834, 78.807 903.526 C 79.115 903.219, 78.808 902.412, 78.124 901.733 C 77.136 900.753, 77.022 900.868, 77.564 902.293 M 1476.158 929 C 1476.158 930.375, 1476.385 930.938, 1476.662 930.250 C 1476.940 929.563, 1476.940 928.438, 1476.662 927.750 C 1476.385 927.063, 1476.158 927.625, 1476.158 929 M 1452.686 946.827 C 1451.745 949.180, 1451 953.755, 1451 957.187 C 1451 963.467, 1451.465 964.389, 1452.408 959.977 C 1452.699 958.615, 1453.672 955.386, 1454.570 952.803 C 1455.735 949.450, 1455.940 947.321, 1455.287 945.360 L 1454.371 942.614 1452.686 946.827 M 1433.813 954.683 C 1434.534 954.972, 1435.397 954.936, 1435.729 954.604 C 1436.061 954.272, 1435.471 954.036, 1434.417 954.079 C 1433.252 954.127, 1433.015 954.364, 1433.813 954.683 M 1459.591 957.250 C 1458.790 958.487, 1457.873 960.850, 1457.552 962.500 C 1457.092 964.868, 1457.168 965.079, 1457.914 963.500 C 1458.567 962.118, 1458.886 961.963, 1458.945 963 C 1459.020 964.315, 1459.146 964.318, 1459.963 963.026 C 1460.560 962.081, 1460.513 961.317, 1459.831 960.895 C 1459.082 960.432, 1459.088 959.686, 1459.853 958.369 C 1460.896 956.574, 1460.941 956.579, 1460.985 958.500 C 1461.023 960.155, 1461.195 960.241, 1461.983 959 C 1462.591 958.043, 1462.583 957.379, 1461.962 957.165 C 1461.426 956.980, 1461.242 956.418, 1461.553 955.915 C 1462.802 953.893, 1460.944 955.158, 1459.591 957.250 M 1425.079 962.583 C 1425.127 963.748, 1425.364 963.985, 1425.683 963.188 C 1425.972 962.466, 1425.936 961.603, 1425.604 961.271 C 1425.272 960.939, 1425.036 961.529, 1425.079 962.583 M 1467.872 964.750 C 1466.629 966.336, 1466.664 966.371, 1468.250 965.128 C 1469.213 964.373, 1470 963.585, 1470 963.378 C 1470 962.555, 1469.179 963.084, 1467.872 964.750 M 1469.768 968.725 C 1471.565 968.947, 1474.265 968.943, 1475.768 968.715 C 1477.271 968.486, 1475.800 968.304, 1472.500 968.310 C 1469.200 968.315, 1467.971 968.502, 1469.768 968.725 M 1305.813 977.683 C 1306.534 977.972, 1307.397 977.936, 1307.729 977.604 C 1308.061 977.272, 1307.471 977.036, 1306.417 977.079 C 1305.252 977.127, 1305.015 977.364, 1305.813 977.683 M 1296.459 980.067 C 1296.096 980.653, 1296.014 981.348, 1296.276 981.610 C 1296.538 981.872, 1297.019 981.392, 1297.345 980.543 C 1298.021 978.781, 1297.445 978.471, 1296.459 980.067 M 1316 980 C 1316.825 980.533, 1318.175 980.969, 1319 980.969 C 1320.333 980.969, 1320.333 980.862, 1319 980 C 1318.175 979.467, 1316.825 979.031, 1316 979.031 C 1314.667 979.031, 1314.667 979.138, 1316 980 M 7.619 984.034 C 6.035 984.509, 3.672 985.899, 2.369 987.123 C 0.054 989.298, 0 989.741, 0 1006.674 L 0 1024 35.020 1024 L 70.040 1024 73.770 1021.630 C 78.696 1018.499, 80.861 1015.970, 81.993 1012.024 C 82.820 1009.141, 82.599 1008.445, 80.040 1005.886 C 77.499 1003.345, 76.436 1003, 71.142 1003 C 67.836 1003, 63.976 1003.439, 62.565 1003.975 C 59.291 1005.220, 59.328 1004.170, 62.671 1001 C 65.119 998.679, 68 993.329, 68 991.104 C 68 986.966, 59.034 985.669, 52.711 988.892 C 49.261 990.651, 49 990.663, 49 989.059 C 49 988.110, 48.720 987.054, 48.378 986.712 C 47.576 985.909, 39.619 989.987, 34.583 993.782 L 30.666 996.734 27.515 992.162 C 22.430 984.782, 15.109 981.792, 7.619 984.034 M 1535.310 995.500 C 1535.315 998.800, 1535.502 1000.029, 1535.725 998.232 C 1535.947 996.435, 1535.943 993.735, 1535.715 992.232 C 1535.486 990.729, 1535.304 992.200, 1535.310 995.500" stroke="none" fill="#000000" fill-rule="evenodd"/>
	<path fill-opacity="0.109" d="M 1452.078 948.656 C 1451.491 950.770, 1451.044 953.850, 1451.085 955.500 C 1451.132 957.395, 1451.673 956.127, 1452.556 952.059 C 1454.096 944.955, 1453.764 942.586, 1452.078 948.656 M 1454.624 949.539 C 1453.659 952.053, 1453.943 952.702, 1455.122 950.675 C 1455.706 949.671, 1455.973 948.639, 1455.715 948.382 C 1455.458 948.124, 1454.966 948.645, 1454.624 949.539 M 2.636 987.636 L 0 990.273 0 1007.136 L 0 1024 34.250 1023.902 C 64.142 1023.816, 67.927 1023.638, 64 1022.500 C 61.246 1021.702, 60.373 1021.158, 61.750 1021.098 C 62.988 1021.044, 63.888 1020.497, 63.750 1019.883 C 63.507 1018.796, 64.851 1018.310, 70 1017.622 C 72.092 1017.343, 72.552 1016.677, 72.816 1013.544 C 73.011 1011.238, 72.750 1010.037, 72.135 1010.416 C 71.587 1010.755, 70.875 1010.606, 70.553 1010.085 C 70.231 1009.564, 70.432 1008.851, 71 1008.500 C 72.560 1007.536, 71.027 1005.776, 69.229 1006.466 C 68.366 1006.797, 67.344 1006.556, 66.957 1005.931 C 66.434 1005.085, 65.689 1005.096, 64.049 1005.974 C 61.210 1007.493, 58.825 1006.619, 59.687 1004.374 C 60.164 1003.130, 59.983 1002.892, 59.015 1003.490 C 58.128 1004.039, 57.930 1003.923, 58.415 1003.138 C 58.813 1002.494, 59.526 1002.207, 60 1002.500 C 60.474 1002.793, 61.187 1002.506, 61.585 1001.862 C 62.012 1001.172, 61.877 1000.958, 61.259 1001.340 C 59.843 1002.215, 59.193 1000.215, 59.461 995.805 C 59.630 993.016, 59.258 992.039, 57.889 991.681 C 56.903 991.423, 55.885 991.727, 55.627 992.356 C 55.304 993.144, 55.133 993.111, 55.079 992.250 C 55.036 991.563, 54.298 991, 53.441 991 C 52.562 991, 52.178 990.520, 52.562 989.900 C 53.056 989.101, 52.681 989.101, 51.186 989.900 C 48.422 991.380, 48.011 991.297, 47.937 989.250 C 47.888 987.909, 47.662 988.026, 46.969 989.750 C 46.471 990.987, 45.663 992, 45.172 992 C 44.681 992, 42.678 993.087, 40.721 994.415 C 38.764 995.743, 36.940 996.606, 36.667 996.334 C 36.394 996.061, 35.243 996.335, 34.109 996.942 C 32.454 997.828, 31.748 997.695, 30.541 996.273 C 24.901 989.626, 21.066 985.759, 21.594 987.250 C 22.086 988.639, 21.625 989.024, 19.357 989.118 C 17.786 989.184, 16.129 989.172, 15.676 989.094 C 15.222 989.015, 15.136 989.412, 15.485 989.975 C 15.839 990.548, 15.210 991, 14.059 991 C 12.927 991, 12 990.550, 12 990 C 12 989.450, 11.100 989, 10 989 C 8.900 989, 8 988.534, 8 987.965 C 8 987.251, 7.399 987.251, 6.066 987.965 C 3.088 989.558, 2.508 989.201, 4.500 987 C 7.154 984.068, 5.713 984.559, 2.636 987.636 M 65.813 1003.683 C 66.534 1003.972, 67.397 1003.936, 67.729 1003.604 C 68.061 1003.272, 67.471 1003.036, 66.417 1003.079 C 65.252 1003.127, 65.015 1003.364, 65.813 1003.683 M 74 1020.500 C 72.625 1021.286, 71.976 1021.945, 72.559 1021.965 C 73.141 1021.984, 74.491 1021.339, 75.559 1020.532 C 78.028 1018.664, 77.239 1018.648, 74 1020.500 M 35.750 1021.743 C 39.737 1021.932, 46.263 1021.932, 50.250 1021.743 C 54.237 1021.553, 50.975 1021.397, 43 1021.397 C 35.025 1021.397, 31.762 1021.553, 35.750 1021.743" stroke="none" fill="#000000" fill-rule="evenodd"/>
</svg>